<?xml version="1.0" encoding="utf-8"?>
<!-- Generator: Adobe Illustrator 21.0.2, SVG Export Plug-In . SVG Version: 6.00 Build 0)  -->
<svg version="1.1" id="Layer_1" xmlns="http://www.w3.org/2000/svg" xmlns:xlink="http://www.w3.org/1999/xlink" x="0px" y="0px"
	 viewBox="0 0 458.6 458.6" style="enable-background:new 0 0 458.6 458.6;" xml:space="preserve">
<style type="text/css">
	.st0{fill:#002D8F;}
</style>
<title>qr scanning logo</title>
<g id="Layer_2">
	<g id="Layer_1-2">
		<g id="Layer_2-2">
			<g id="Layer_1-2-2">
				<path class="st0" d="M132.5,151.1c-2.4-26.7-0.6-46,6.1-56.4c3.7-5.6,10.1-8.8,16.7-8.4c24.7,1.1,25.2,18.6,30.6,30.4
					c3,6.5,10,10.3,17.1,9.3c79.8-10.5,130.6-48.3,219.9-63.3c2.3-0.4,4.4,1.1,4.8,3.4c0,0,0,0.1,0,0.1c0,0.3,0.1,0.6,0,0.8
					c-1.1,20.4-17,30.4-47.2,30.3c-5.9-0.1-11.8,0.6-17.5,1.9c-57.5,13.7-113.9,31.3-169,52.8c-7.9,3-12.8,11-11.9,19.4
					c3.1,28.8-6.9,76.3,33,56.6c3.1-1.5,6.3-2.9,9.5-4.1c56.1-20.5,65.9-59.4,91.4-52.7c6.1,1.6,11.3,6,13.1,12.1
					c3.3,11-5.1,23-31.4,26.1c-20.4,2.5-40.5,16.9-89.2,43.5c-5.7,3.2-9.2,9.2-9.2,15.7c0.3,29.3-5.5,67.1,13.3,87.3
					c2.8,2.8,4.9,6.2,6.3,9.9c3.8,11.1,0.2,22.9-12.2,28c-11.7,4.9-25.1,1-33.5-8.6c-25.1-29.3-24.4-62-23.3-96.5
					c0.1-2.4-1.8-4.5-4.2-4.6c0,0-0.1,0-0.1,0c-0.4,0-0.8,0-1.2,0.1c-12.5,3.2-21.7,19.8-42.4,29.8c-3,1.4-6.5,0.1-7.9-2.9
					c0,0,0-0.1,0-0.1c-0.5-1-0.6-2.2-0.5-3.3c2.3-14.6,14.9-30.7,49.3-38c2.7-0.5,4.7-2.9,4.7-5.6c1.1-29.6-1.3-57-7.2-82.3
					c-1.7-7.4-9-12-16.4-10.3c0,0-0.1,0-0.1,0c-0.6,0.1-1.2,0.3-1.8,0.5c-53.5,20.4-85.1,61.9-91.2,46.7c-4-29,41.2-38.8,97.6-61.9
					C131.1,156,132.7,153.7,132.5,151.1z"/>
			</g>
		</g>
	</g>
</g>
<image style="overflow:visible;" width="1" height="1" xlink:href="../../qr-pdf-scanner/assets/splash.png"  transform="matrix(1 0 0 1 311 234.89)">
</image>
</svg>
