<?xml version="1.0" encoding="utf-8"?>
<!-- Generator: Adobe Illustrator 21.0.2, SVG Export Plug-In . SVG Version: 6.00 Build 0)  -->
<svg version="1.1" id="Layer_1" xmlns="http://www.w3.org/2000/svg" xmlns:xlink="http://www.w3.org/1999/xlink" x="0px" y="0px"
	 viewBox="0 0 401.4 52.9" style="enable-background:new 0 0 401.4 52.9;" xml:space="preserve">
<style type="text/css">
	.st0{enable-background:new    ;}
	.st1{fill:#1D1D1B;}
	.st2{fill:#0973AE;}
	.st3{fill:#DE1E1B;}
	.st4{fill:none;stroke:#7A7A7C;stroke-miterlimit:10;}
</style>
<title>wockhardt logo svg</title>
<g id="Layer_2">
	<g id="Layer_1-2">
		<g class="st0">
			<path class="st1" d="M1.6,45c-0.3-0.1-0.6-0.4-0.7-0.6c-0.2-0.3-0.2-0.6-0.2-1c0-0.6,0.2-1.1,0.5-1.5s0.8-0.6,1.4-0.6
				c0.6,0,1,0.2,1.4,0.6c0.4,0.4,0.5,0.9,0.5,1.5c0,0.4-0.1,0.7-0.2,1c-0.2,0.3-0.4,0.5-0.7,0.6c0.4,0.2,0.7,0.4,0.9,0.8
				s0.3,0.8,0.3,1.3c0,0.7-0.2,1.3-0.6,1.8s-0.9,0.7-1.6,0.7c-0.6,0-1.1-0.2-1.6-0.7s-0.6-1.1-0.6-1.8c0-0.5,0.1-1,0.3-1.4
				C0.9,45.3,1.2,45.1,1.6,45z M1.2,47.1c0,0.5,0.1,0.9,0.4,1.2c0.3,0.3,0.6,0.5,1,0.5c0.4,0,0.7-0.1,1-0.4c0.3-0.3,0.4-0.7,0.4-1.2
				c0-0.5-0.1-0.9-0.4-1.2c-0.3-0.3-0.6-0.5-1-0.5c-0.4,0-0.7,0.2-0.9,0.5C1.3,46.2,1.2,46.6,1.2,47.1z M1.5,43.3
				c0,0.4,0.1,0.7,0.3,1c0.2,0.2,0.5,0.4,0.8,0.4c0.3,0,0.6-0.1,0.8-0.4s0.3-0.5,0.3-0.9c0-0.4-0.1-0.7-0.3-0.9
				C3.1,42.2,2.8,42,2.5,42S2,42.1,1.8,42.4C1.6,42.6,1.5,42.9,1.5,43.3z"/>
			<path class="st1" d="M5.6,42.3v-1h4.3v0.8c-0.6,0.8-1.2,1.9-1.7,3.3c-0.5,1.3-0.8,2.7-0.8,4H6.5c0-0.7,0.1-1.5,0.3-2.4
				c0.2-0.9,0.5-1.8,0.8-2.6s0.7-1.5,1.2-2.1H5.6z"/>
			<path class="st1" d="M10.6,47v-1h2.5v1H10.6z"/>
			<path class="st1" d="M13.4,49.4l2.6-8.2h0.9l2.7,8.2h-1l-0.8-2.5H15l-0.7,2.5H13.4z M15.3,46.1h2.3l-0.7-2.3
				c-0.2-0.7-0.4-1.3-0.5-1.7c-0.1,0.5-0.2,1-0.4,1.6L15.3,46.1z"/>
			<path class="st1" d="M20.4,49.4v-1.1h0.9v1.1c0,0.4-0.1,0.8-0.2,1c-0.1,0.3-0.3,0.4-0.6,0.6l-0.2-0.4c0.2-0.1,0.3-0.2,0.4-0.4
				c0.1-0.2,0.1-0.4,0.1-0.8H20.4z"/>
			<path class="st1" d="M25.2,46.8l0.8-0.1c0,0.4,0.1,0.8,0.3,1.1s0.4,0.5,0.7,0.6s0.6,0.2,1,0.2c0.5,0,0.9-0.1,1.2-0.4
				c0.3-0.3,0.4-0.6,0.4-1c0-0.2-0.1-0.5-0.2-0.6s-0.3-0.3-0.5-0.4c-0.2-0.1-0.7-0.3-1.4-0.5c-0.6-0.2-1.1-0.4-1.3-0.6
				c-0.3-0.2-0.5-0.4-0.6-0.7s-0.2-0.6-0.2-1c0-0.7,0.2-1.2,0.6-1.6c0.4-0.4,1-0.6,1.7-0.6c0.5,0,0.9,0.1,1.3,0.3s0.7,0.5,0.9,0.8
				c0.2,0.4,0.3,0.8,0.3,1.3l-0.8,0.1c0-0.5-0.2-0.9-0.5-1.2c-0.3-0.3-0.7-0.4-1.1-0.4c-0.5,0-0.9,0.1-1.1,0.3
				c-0.3,0.2-0.4,0.5-0.4,0.9c0,0.3,0.1,0.6,0.3,0.8c0.2,0.2,0.6,0.4,1.3,0.6c0.7,0.2,1.1,0.3,1.4,0.5c0.4,0.2,0.7,0.5,0.9,0.8
				s0.3,0.7,0.3,1.2c0,0.5-0.1,0.9-0.3,1.3c-0.2,0.4-0.5,0.7-0.9,0.9c-0.4,0.2-0.8,0.3-1.4,0.3c-0.8,0-1.5-0.3-2-0.7
				C25.5,48.3,25.2,47.6,25.2,46.8z"/>
			<path class="st1" d="M31.5,42.4v-1.2h0.8v1.2H31.5z M31.5,49.4v-5.9h0.8v5.9H31.5z"/>
			<path class="st1" d="M33.6,49.4v-8.2h0.8v8.2H33.6z"/>
			<path class="st1" d="M37,49.4l-1.8-5.9H36l1,3.5c0.1,0.4,0.2,0.8,0.3,1.2c0.1-0.3,0.2-0.7,0.3-1.1l1.1-3.6h0.8l-1.8,5.9H37z"/>
			<path class="st1" d="M43.6,47.5l0.8,0.1c-0.1,0.6-0.4,1.1-0.8,1.4c-0.4,0.3-0.8,0.5-1.4,0.5c-0.7,0-1.2-0.3-1.7-0.8
				c-0.4-0.5-0.6-1.3-0.6-2.3c0-1,0.2-1.8,0.6-2.3c0.4-0.5,1-0.8,1.6-0.8c0.6,0,1.1,0.3,1.6,0.8c0.4,0.5,0.6,1.3,0.6,2.3l0,0.3h-3.6
				c0,0.7,0.2,1.2,0.5,1.5c0.3,0.3,0.6,0.5,1,0.5C42.9,48.7,43.4,48.3,43.6,47.5z M40.9,45.9h2.7c0-0.5-0.1-0.9-0.3-1.1
				c-0.3-0.4-0.6-0.6-1-0.6c-0.4,0-0.7,0.2-0.9,0.5C41.1,45,40.9,45.4,40.9,45.9z"/>
			<path class="st1" d="M45.5,49.4v-5.9h0.7v0.9c0.2-0.4,0.4-0.7,0.5-0.8c0.2-0.1,0.3-0.2,0.5-0.2c0.3,0,0.6,0.1,0.8,0.3l-0.3,0.9
				c-0.2-0.1-0.4-0.2-0.6-0.2c-0.2,0-0.3,0.1-0.5,0.2s-0.2,0.3-0.3,0.5c-0.1,0.4-0.2,0.8-0.2,1.2v3.1H45.5z"/>
			<path class="st1" d="M51.4,49.4v-8.2h0.9v8.2H51.4z"/>
			<path class="st1" d="M53.7,49.4v-5.9h0.7v0.8c0.2-0.3,0.4-0.6,0.6-0.7c0.3-0.2,0.5-0.2,0.9-0.2c0.3,0,0.5,0.1,0.7,0.2
				s0.4,0.2,0.5,0.4c0.1,0.2,0.2,0.4,0.3,0.6c0.1,0.3,0.1,0.7,0.1,1.2v3.6h-0.8v-3.6c0-0.4,0-0.8-0.1-1s-0.2-0.4-0.3-0.5
				c-0.2-0.1-0.3-0.2-0.5-0.2c-0.4,0-0.7,0.1-0.9,0.4c-0.2,0.3-0.3,0.8-0.3,1.5v3.2H53.7z"/>
			<path class="st1" d="M62,49.4v-0.7c-0.1,0.3-0.3,0.5-0.6,0.7s-0.5,0.2-0.8,0.2c-0.6,0-1.1-0.3-1.5-0.8c-0.4-0.5-0.6-1.3-0.6-2.3
				c0-0.7,0.1-1.2,0.3-1.7s0.4-0.8,0.7-1c0.3-0.2,0.6-0.3,1-0.3c0.3,0,0.5,0.1,0.7,0.2c0.2,0.1,0.4,0.3,0.6,0.6v-2.9h0.8v8.2H62z
				 M59.4,46.5c0,0.8,0.1,1.3,0.4,1.7c0.3,0.4,0.6,0.6,0.9,0.6c0.3,0,0.6-0.2,0.9-0.5c0.3-0.4,0.4-0.9,0.4-1.6
				c0-0.8-0.1-1.4-0.4-1.8c-0.3-0.4-0.6-0.6-1-0.6c-0.3,0-0.6,0.2-0.9,0.5C59.5,45.1,59.4,45.7,59.4,46.5z"/>
			<path class="st1" d="M67.2,49.4v-0.9c-0.2,0.3-0.4,0.6-0.7,0.8c-0.3,0.2-0.5,0.3-0.9,0.3c-0.4,0-0.7-0.1-1-0.3
				c-0.3-0.2-0.4-0.5-0.5-0.8S64,47.7,64,47.2v-3.7h0.8v3.3c0,0.6,0,1,0.1,1.2c0.1,0.2,0.2,0.4,0.3,0.5c0.2,0.1,0.4,0.2,0.6,0.2
				c0.4,0,0.7-0.2,1-0.5c0.2-0.3,0.3-0.8,0.3-1.5v-3.2h0.8v5.9H67.2z"/>
			<path class="st1" d="M68.9,47.6l0.8-0.2c0,0.4,0.2,0.7,0.4,0.9c0.2,0.2,0.5,0.3,0.8,0.3c0.4,0,0.6-0.1,0.8-0.3
				c0.2-0.2,0.3-0.4,0.3-0.7c0-0.2-0.1-0.4-0.2-0.5c-0.1-0.1-0.4-0.2-0.8-0.3c-0.6-0.2-1.1-0.4-1.3-0.5c-0.2-0.1-0.4-0.3-0.5-0.6
				c-0.1-0.2-0.2-0.5-0.2-0.8c0-0.5,0.2-0.9,0.5-1.2c0.3-0.3,0.8-0.5,1.3-0.5c0.4,0,0.7,0.1,0.9,0.2c0.3,0.1,0.5,0.3,0.6,0.5
				s0.2,0.5,0.3,0.9l-0.8,0.1c-0.1-0.6-0.4-1-1-1c-0.4,0-0.6,0.1-0.8,0.2c-0.2,0.1-0.3,0.3-0.3,0.5c0,0.2,0.1,0.4,0.2,0.5
				c0.1,0.1,0.4,0.2,0.9,0.4c0.7,0.2,1.1,0.4,1.3,0.5c0.2,0.1,0.4,0.3,0.5,0.5c0.1,0.2,0.2,0.5,0.2,0.8c0,0.6-0.2,1-0.5,1.4
				c-0.4,0.3-0.8,0.5-1.5,0.5C69.7,49.6,69.1,48.9,68.9,47.6z"/>
			<path class="st1" d="M75.7,48.5l0.1,0.9c-0.2,0.1-0.4,0.1-0.6,0.1c-0.3,0-0.5-0.1-0.7-0.2c-0.2-0.1-0.3-0.3-0.4-0.5
				c-0.1-0.2-0.1-0.6-0.1-1.2v-3.4h-0.6v-0.8H74V42l0.8-0.6v2.1h0.8v0.8h-0.8v3.5c0,0.3,0,0.5,0.1,0.6c0.1,0.1,0.2,0.2,0.4,0.2
				C75.4,48.6,75.5,48.5,75.7,48.5z"/>
			<path class="st1" d="M76.4,49.4v-5.9h0.7v0.9c0.2-0.4,0.4-0.7,0.5-0.8c0.2-0.1,0.3-0.2,0.5-0.2c0.3,0,0.6,0.1,0.8,0.3l-0.3,0.9
				c-0.2-0.1-0.4-0.2-0.6-0.2c-0.2,0-0.3,0.1-0.5,0.2s-0.2,0.3-0.3,0.5c-0.1,0.4-0.2,0.8-0.2,1.2v3.1H76.4z"/>
			<path class="st1" d="M79.5,42.4v-1.2h0.8v1.2H79.5z M79.5,49.4v-5.9h0.8v5.9H79.5z"/>
			<path class="st1" d="M84.7,48.7c-0.3,0.3-0.6,0.5-0.9,0.6c-0.3,0.1-0.6,0.2-0.9,0.2c-0.5,0-0.9-0.2-1.2-0.5s-0.4-0.7-0.4-1.2
				c0-0.3,0.1-0.6,0.2-0.9c0.1-0.3,0.3-0.5,0.6-0.6s0.6-0.3,1.1-0.3c0.7-0.1,1.1-0.2,1.5-0.4l0-0.3c0-0.4-0.1-0.7-0.2-0.9
				c-0.2-0.2-0.5-0.4-0.9-0.4c-0.4,0-0.7,0.1-0.9,0.2c-0.2,0.2-0.3,0.5-0.4,0.9l-0.8-0.1c0.1-0.6,0.3-1.1,0.7-1.4
				c0.3-0.3,0.8-0.4,1.5-0.4c0.5,0,0.9,0.1,1.2,0.3c0.3,0.2,0.5,0.4,0.5,0.7c0.1,0.3,0.1,0.7,0.1,1.2v1.3c0,0.9,0,1.5,0.1,1.8
				s0.1,0.5,0.2,0.7h-0.9C84.8,49.2,84.7,49,84.7,48.7z M84.6,46.4c-0.3,0.1-0.7,0.3-1.3,0.4C83,46.9,82.7,47,82.6,47
				c-0.1,0.1-0.2,0.2-0.3,0.3c-0.1,0.1-0.1,0.3-0.1,0.5c0,0.3,0.1,0.5,0.3,0.7c0.2,0.2,0.4,0.3,0.7,0.3c0.3,0,0.6-0.1,0.8-0.2
				c0.2-0.2,0.4-0.4,0.5-0.6c0.1-0.3,0.2-0.6,0.2-1.1V46.4z"/>
			<path class="st1" d="M86.7,49.4v-8.2h0.8v8.2H86.7z"/>
			<path class="st1" d="M91.5,49.4v-8.2h4.8v1h-3.9v2.5h3.7v1h-3.7v2.8h4.1v1H91.5z"/>
			<path class="st1" d="M97.2,47.6l0.8-0.2c0,0.4,0.2,0.7,0.4,0.9c0.2,0.2,0.5,0.3,0.8,0.3c0.4,0,0.6-0.1,0.8-0.3
				c0.2-0.2,0.3-0.4,0.3-0.7c0-0.2-0.1-0.4-0.2-0.5c-0.1-0.1-0.4-0.2-0.8-0.3c-0.6-0.2-1.1-0.4-1.3-0.5c-0.2-0.1-0.4-0.3-0.5-0.6
				c-0.1-0.2-0.2-0.5-0.2-0.8c0-0.5,0.2-0.9,0.5-1.2c0.3-0.3,0.8-0.5,1.3-0.5c0.4,0,0.7,0.1,0.9,0.2c0.3,0.1,0.5,0.3,0.6,0.5
				s0.2,0.5,0.3,0.9l-0.8,0.1c-0.1-0.6-0.4-1-1-1c-0.4,0-0.6,0.1-0.8,0.2c-0.2,0.1-0.3,0.3-0.3,0.5c0,0.2,0.1,0.4,0.2,0.5
				c0.1,0.1,0.4,0.2,0.9,0.4c0.7,0.2,1.1,0.4,1.3,0.5c0.2,0.1,0.4,0.3,0.5,0.5c0.1,0.2,0.2,0.5,0.2,0.8c0,0.6-0.2,1-0.5,1.4
				c-0.4,0.3-0.8,0.5-1.5,0.5C98.1,49.6,97.4,48.9,97.2,47.6z"/>
			<path class="st1" d="M104,48.5l0.1,0.9c-0.2,0.1-0.4,0.1-0.6,0.1c-0.3,0-0.5-0.1-0.7-0.2c-0.2-0.1-0.3-0.3-0.4-0.5
				c-0.1-0.2-0.1-0.6-0.1-1.2v-3.4h-0.6v-0.8h0.6V42l0.8-0.6v2.1h0.8v0.8h-0.8v3.5c0,0.3,0,0.5,0.1,0.6c0.1,0.1,0.2,0.2,0.4,0.2
				C103.8,48.6,103.9,48.5,104,48.5z"/>
			<path class="st1" d="M107.9,48.7c-0.3,0.3-0.6,0.5-0.9,0.6c-0.3,0.1-0.6,0.2-0.9,0.2c-0.5,0-0.9-0.2-1.2-0.5s-0.4-0.7-0.4-1.2
				c0-0.3,0.1-0.6,0.2-0.9c0.1-0.3,0.3-0.5,0.6-0.6s0.6-0.3,1.1-0.3c0.7-0.1,1.1-0.2,1.5-0.4l0-0.3c0-0.4-0.1-0.7-0.2-0.9
				c-0.2-0.2-0.5-0.4-0.9-0.4c-0.4,0-0.7,0.1-0.9,0.2c-0.2,0.2-0.3,0.5-0.4,0.9l-0.8-0.1c0.1-0.6,0.3-1.1,0.7-1.4
				c0.3-0.3,0.8-0.4,1.5-0.4c0.5,0,0.9,0.1,1.2,0.3c0.3,0.2,0.5,0.4,0.5,0.7c0.1,0.3,0.1,0.7,0.1,1.2v1.3c0,0.9,0,1.5,0.1,1.8
				s0.1,0.5,0.2,0.7h-0.9C108,49.2,107.9,49,107.9,48.7z M107.9,46.4c-0.3,0.1-0.7,0.3-1.3,0.4c-0.3,0.1-0.6,0.1-0.7,0.2
				c-0.1,0.1-0.2,0.2-0.3,0.3c-0.1,0.1-0.1,0.3-0.1,0.5c0,0.3,0.1,0.5,0.3,0.7c0.2,0.2,0.4,0.3,0.7,0.3c0.3,0,0.6-0.1,0.8-0.2
				c0.2-0.2,0.4-0.4,0.5-0.6c0.1-0.3,0.2-0.6,0.2-1.1V46.4z"/>
			<path class="st1" d="M111.8,48.5l0.1,0.9c-0.2,0.1-0.4,0.1-0.6,0.1c-0.3,0-0.5-0.1-0.7-0.2c-0.2-0.1-0.3-0.3-0.4-0.5
				c-0.1-0.2-0.1-0.6-0.1-1.2v-3.4h-0.6v-0.8h0.6V42l0.8-0.6v2.1h0.8v0.8h-0.8v3.5c0,0.3,0,0.5,0.1,0.6c0.1,0.1,0.2,0.2,0.4,0.2
				C111.5,48.6,111.6,48.5,111.8,48.5z"/>
			<path class="st1" d="M115.8,47.5l0.8,0.1c-0.1,0.6-0.4,1.1-0.8,1.4c-0.4,0.3-0.8,0.5-1.4,0.5c-0.7,0-1.2-0.3-1.7-0.8
				c-0.4-0.5-0.6-1.3-0.6-2.3c0-1,0.2-1.8,0.6-2.3c0.4-0.5,1-0.8,1.6-0.8c0.6,0,1.1,0.3,1.6,0.8c0.4,0.5,0.6,1.3,0.6,2.3l0,0.3h-3.6
				c0,0.7,0.2,1.2,0.5,1.5c0.3,0.3,0.6,0.5,1,0.5C115.1,48.7,115.6,48.3,115.8,47.5z M113.1,45.9h2.7c0-0.5-0.1-0.9-0.3-1.1
				c-0.3-0.4-0.6-0.6-1-0.6c-0.4,0-0.7,0.2-0.9,0.5C113.3,45,113.2,45.4,113.1,45.9z"/>
			<path class="st1" d="M117.9,49.4v-1.1h0.9v1.1c0,0.4-0.1,0.8-0.2,1c-0.1,0.3-0.3,0.4-0.6,0.6l-0.2-0.4c0.2-0.1,0.3-0.2,0.4-0.4
				c0.1-0.2,0.1-0.4,0.1-0.8H117.9z"/>
			<path class="st1" d="M122.9,49.4v-8.2h2.5c0.5,0,0.9,0.1,1.2,0.2s0.5,0.4,0.7,0.7c0.2,0.3,0.3,0.7,0.3,1.1c0,0.4-0.1,0.7-0.2,1
				c-0.2,0.3-0.4,0.5-0.7,0.7c0.4,0.1,0.7,0.4,0.9,0.7c0.2,0.3,0.3,0.8,0.3,1.3c0,0.5-0.1,0.9-0.3,1.3c-0.2,0.4-0.5,0.6-0.8,0.8
				c-0.3,0.2-0.8,0.3-1.4,0.3H122.9z M123.8,44.7h1.4c0.4,0,0.6,0,0.8-0.1c0.2-0.1,0.4-0.2,0.5-0.4c0.1-0.2,0.2-0.4,0.2-0.8
				c0-0.3-0.1-0.5-0.2-0.7c-0.1-0.2-0.3-0.3-0.4-0.4c-0.2-0.1-0.5-0.1-1-0.1h-1.3V44.7z M123.8,48.5h1.7c0.4,0,0.6,0,0.8-0.1
				c0.3-0.1,0.4-0.3,0.6-0.5c0.1-0.2,0.2-0.5,0.2-0.8c0-0.3-0.1-0.6-0.2-0.8c-0.1-0.2-0.3-0.4-0.5-0.5c-0.2-0.1-0.5-0.1-1-0.1h-1.5
				V48.5z"/>
			<path class="st1" d="M129,49.4v-8.2h0.8v2.9c0.2-0.3,0.4-0.5,0.6-0.6c0.2-0.1,0.5-0.2,0.8-0.2c0.5,0,0.9,0.2,1.2,0.5
				c0.3,0.3,0.4,0.9,0.4,1.8v3.8h-0.8v-3.8c0-0.5-0.1-0.9-0.3-1.1c-0.2-0.2-0.4-0.3-0.7-0.3c-0.4,0-0.7,0.1-0.9,0.4
				c-0.2,0.3-0.4,0.8-0.4,1.5v3.2H129z"/>
			<path class="st1" d="M134.2,42.4v-1.2h0.8v1.2H134.2z M134.2,49.4v-5.9h0.8v5.9H134.2z"/>
			<path class="st1" d="M136.3,49.4v-5.9h0.7v0.8c0.2-0.3,0.4-0.5,0.6-0.7s0.5-0.3,0.8-0.3c0.3,0,0.6,0.1,0.9,0.3
				c0.2,0.2,0.4,0.4,0.5,0.8c0.2-0.3,0.4-0.6,0.7-0.8s0.5-0.3,0.8-0.3c0.5,0,0.8,0.2,1.1,0.5s0.4,0.8,0.4,1.5v4.1H142v-3.7
				c0-0.4,0-0.7-0.1-0.9c-0.1-0.2-0.2-0.3-0.3-0.4c-0.1-0.1-0.3-0.1-0.5-0.1c-0.4,0-0.6,0.1-0.9,0.4s-0.3,0.7-0.3,1.3v3.4h-0.8v-3.9
				c0-0.5-0.1-0.8-0.2-1c-0.1-0.2-0.4-0.3-0.6-0.3c-0.4,0-0.7,0.2-0.9,0.5c-0.2,0.3-0.3,0.9-0.3,1.7v3.1H136.3z"/>
			<path class="st1" d="M144,51.7v-8.2h0.8v0.8c0.2-0.3,0.4-0.6,0.6-0.7c0.2-0.1,0.5-0.2,0.8-0.2c0.4,0,0.7,0.1,1,0.3
				c0.3,0.2,0.6,0.6,0.7,1c0.2,0.5,0.3,1,0.3,1.7c0,1-0.2,1.8-0.6,2.3c-0.4,0.5-0.9,0.8-1.5,0.8c-0.3,0-0.5-0.1-0.7-0.2
				c-0.2-0.1-0.4-0.3-0.6-0.6v2.9H144z M144.7,46.5c0,0.8,0.1,1.3,0.4,1.7c0.3,0.4,0.6,0.5,0.9,0.5c0.3,0,0.6-0.2,0.9-0.6
				c0.3-0.4,0.4-1,0.4-1.7c0-0.8-0.1-1.3-0.4-1.7c-0.3-0.4-0.6-0.6-0.9-0.6c-0.3,0-0.6,0.2-0.9,0.6
				C144.9,45.1,144.7,45.7,144.7,46.5z"/>
			<path class="st1" d="M148.8,46.5c0-1,0.2-1.8,0.6-2.3c0.4-0.5,1-0.8,1.6-0.8c0.6,0,1.2,0.3,1.6,0.8c0.4,0.5,0.6,1.3,0.6,2.3
				c0,1.1-0.2,1.9-0.6,2.4c-0.4,0.5-1,0.8-1.6,0.8c-0.6,0-1.2-0.3-1.6-0.8C149.1,48.2,148.8,47.5,148.8,46.5z M149.7,46.5
				c0,0.8,0.1,1.3,0.4,1.7s0.6,0.6,1,0.6c0.4,0,0.7-0.2,1-0.6s0.4-0.9,0.4-1.7c0-0.8-0.1-1.3-0.4-1.7s-0.6-0.6-1-0.6
				c-0.4,0-0.7,0.2-1,0.6C149.8,45.1,149.7,45.7,149.7,46.5z"/>
			<path class="st1" d="M154.3,49.4v-5.9h0.7v0.9c0.2-0.4,0.4-0.7,0.5-0.8c0.2-0.1,0.3-0.2,0.5-0.2c0.3,0,0.6,0.1,0.8,0.3l-0.3,0.9
				c-0.2-0.1-0.4-0.2-0.6-0.2c-0.2,0-0.3,0.1-0.5,0.2s-0.2,0.3-0.3,0.5c-0.1,0.4-0.2,0.8-0.2,1.2v3.1H154.3z"/>
			<path class="st1" d="M160.7,47.5l0.8,0.1c-0.1,0.6-0.4,1.1-0.8,1.4c-0.4,0.3-0.8,0.5-1.4,0.5c-0.7,0-1.2-0.3-1.7-0.8
				c-0.4-0.5-0.6-1.3-0.6-2.3c0-1,0.2-1.8,0.6-2.3c0.4-0.5,1-0.8,1.6-0.8c0.6,0,1.1,0.3,1.6,0.8c0.4,0.5,0.6,1.3,0.6,2.3l0,0.3H158
				c0,0.7,0.2,1.2,0.5,1.5c0.3,0.3,0.6,0.5,1,0.5C160,48.7,160.4,48.3,160.7,47.5z M158,45.9h2.7c0-0.5-0.1-0.9-0.3-1.1
				c-0.3-0.4-0.6-0.6-1-0.6c-0.4,0-0.7,0.2-0.9,0.5C158.2,45,158,45.4,158,45.9z"/>
			<path class="st1" d="M162.8,49.4v-1.1h0.9v1.1c0,0.4-0.1,0.8-0.2,1c-0.1,0.3-0.3,0.4-0.6,0.6l-0.2-0.4c0.2-0.1,0.3-0.2,0.4-0.4
				c0.1-0.2,0.1-0.4,0.1-0.8H162.8z"/>
			<path class="st1" d="M167.8,49.4v-8.2h0.9l3.5,6.4v-6.4h0.8v8.2h-0.9l-3.5-6.4v6.4H167.8z"/>
			<path class="st1" d="M177.5,48.7c-0.3,0.3-0.6,0.5-0.9,0.6c-0.3,0.1-0.6,0.2-0.9,0.2c-0.5,0-0.9-0.2-1.2-0.5s-0.4-0.7-0.4-1.2
				c0-0.3,0.1-0.6,0.2-0.9c0.1-0.3,0.3-0.5,0.6-0.6s0.6-0.3,1.1-0.3c0.7-0.1,1.1-0.2,1.5-0.4l0-0.3c0-0.4-0.1-0.7-0.2-0.9
				c-0.2-0.2-0.5-0.4-0.9-0.4c-0.4,0-0.7,0.1-0.9,0.2c-0.2,0.2-0.3,0.5-0.4,0.9l-0.8-0.1c0.1-0.6,0.3-1.1,0.7-1.4
				c0.3-0.3,0.8-0.4,1.5-0.4c0.5,0,0.9,0.1,1.2,0.3c0.3,0.2,0.5,0.4,0.5,0.7c0.1,0.3,0.1,0.7,0.1,1.2v1.3c0,0.9,0,1.5,0.1,1.8
				s0.1,0.5,0.2,0.7h-0.9C177.6,49.2,177.6,49,177.5,48.7z M177.5,46.4c-0.3,0.1-0.7,0.3-1.3,0.4c-0.3,0.1-0.6,0.1-0.7,0.2
				c-0.1,0.1-0.2,0.2-0.3,0.3c-0.1,0.1-0.1,0.3-0.1,0.5c0,0.3,0.1,0.5,0.3,0.7c0.2,0.2,0.4,0.3,0.7,0.3c0.3,0,0.6-0.1,0.8-0.2
				c0.2-0.2,0.4-0.4,0.5-0.6c0.1-0.3,0.2-0.6,0.2-1.1V46.4z"/>
			<path class="st1" d="M179.6,49.4v-5.9h0.7v0.8c0.2-0.3,0.4-0.6,0.6-0.7c0.3-0.2,0.5-0.2,0.9-0.2c0.3,0,0.5,0.1,0.7,0.2
				s0.4,0.2,0.5,0.4c0.1,0.2,0.2,0.4,0.3,0.6c0.1,0.3,0.1,0.7,0.1,1.2v3.6h-0.8v-3.6c0-0.4,0-0.8-0.1-1s-0.2-0.4-0.3-0.5
				c-0.2-0.1-0.3-0.2-0.5-0.2c-0.4,0-0.7,0.1-0.9,0.4c-0.2,0.3-0.3,0.8-0.3,1.5v3.2H179.6z"/>
			<path class="st1" d="M184.7,42.4v-1.2h0.8v1.2H184.7z M184.7,49.4v-5.9h0.8v5.9H184.7z"/>
			<path class="st1" d="M189.5,49.4v-8.2h2.3c0.6,0,1,0.1,1.3,0.2c0.4,0.1,0.7,0.4,1,0.7s0.5,0.8,0.7,1.3c0.2,0.5,0.2,1.2,0.2,1.9
				c0,0.9-0.1,1.7-0.4,2.4c-0.3,0.6-0.6,1.1-1,1.4s-1,0.4-1.7,0.4H189.5z M190.3,48.5h1.4c0.6,0,1-0.1,1.3-0.3
				c0.3-0.2,0.5-0.5,0.7-0.9c0.2-0.6,0.3-1.2,0.3-2c0-0.8-0.1-1.5-0.3-2c-0.2-0.5-0.5-0.8-0.9-1c-0.2-0.1-0.6-0.2-1.1-0.2h-1.4V48.5
				z"/>
			<path class="st1" d="M199.2,48.7c-0.3,0.3-0.6,0.5-0.9,0.6c-0.3,0.1-0.6,0.2-0.9,0.2c-0.5,0-0.9-0.2-1.2-0.5s-0.4-0.7-0.4-1.2
				c0-0.3,0.1-0.6,0.2-0.9c0.1-0.3,0.3-0.5,0.6-0.6s0.6-0.3,1.1-0.3c0.7-0.1,1.1-0.2,1.5-0.4l0-0.3c0-0.4-0.1-0.7-0.2-0.9
				c-0.2-0.2-0.5-0.4-0.9-0.4c-0.4,0-0.7,0.1-0.9,0.2c-0.2,0.2-0.3,0.5-0.4,0.9l-0.8-0.1c0.1-0.6,0.3-1.1,0.7-1.4
				c0.3-0.3,0.8-0.4,1.5-0.4c0.5,0,0.9,0.1,1.2,0.3c0.3,0.2,0.5,0.4,0.5,0.7c0.1,0.3,0.1,0.7,0.1,1.2v1.3c0,0.9,0,1.5,0.1,1.8
				s0.1,0.5,0.2,0.7h-0.9C199.3,49.2,199.2,49,199.2,48.7z M199.1,46.4c-0.3,0.1-0.7,0.3-1.3,0.4c-0.3,0.1-0.6,0.1-0.7,0.2
				c-0.1,0.1-0.2,0.2-0.3,0.3c-0.1,0.1-0.1,0.3-0.1,0.5c0,0.3,0.1,0.5,0.3,0.7c0.2,0.2,0.4,0.3,0.7,0.3c0.3,0,0.6-0.1,0.8-0.2
				c0.2-0.2,0.4-0.4,0.5-0.6c0.1-0.3,0.2-0.6,0.2-1.1V46.4z"/>
			<path class="st1" d="M201.2,49.4v-5.9h0.7v0.8c0.2-0.3,0.4-0.5,0.6-0.7s0.5-0.3,0.8-0.3c0.3,0,0.6,0.1,0.9,0.3
				c0.2,0.2,0.4,0.4,0.5,0.8c0.2-0.3,0.4-0.6,0.7-0.8s0.5-0.3,0.8-0.3c0.5,0,0.8,0.2,1.1,0.5s0.4,0.8,0.4,1.5v4.1H207v-3.7
				c0-0.4,0-0.7-0.1-0.9c-0.1-0.2-0.2-0.3-0.3-0.4c-0.1-0.1-0.3-0.1-0.5-0.1c-0.4,0-0.6,0.1-0.9,0.4s-0.3,0.7-0.3,1.3v3.4h-0.8v-3.9
				c0-0.5-0.1-0.8-0.2-1c-0.1-0.2-0.4-0.3-0.6-0.3c-0.4,0-0.7,0.2-0.9,0.5c-0.2,0.3-0.3,0.9-0.3,1.7v3.1H201.2z"/>
			<path class="st1" d="M212.1,48.7c-0.3,0.3-0.6,0.5-0.9,0.6s-0.6,0.2-0.9,0.2c-0.5,0-0.9-0.2-1.2-0.5c-0.3-0.3-0.4-0.7-0.4-1.2
				c0-0.3,0.1-0.6,0.2-0.9c0.1-0.3,0.3-0.5,0.6-0.6c0.2-0.1,0.6-0.3,1.1-0.3c0.7-0.1,1.1-0.2,1.5-0.4l0-0.3c0-0.4-0.1-0.7-0.2-0.9
				c-0.2-0.2-0.5-0.4-0.9-0.4c-0.4,0-0.7,0.1-0.8,0.2c-0.2,0.2-0.3,0.5-0.4,0.9l-0.8-0.1c0.1-0.6,0.3-1.1,0.7-1.4
				c0.3-0.3,0.8-0.4,1.5-0.4c0.5,0,0.9,0.1,1.2,0.3s0.5,0.4,0.5,0.7s0.1,0.7,0.1,1.2v1.3c0,0.9,0,1.5,0.1,1.8s0.1,0.5,0.2,0.7h-0.9
				C212.2,49.2,212.1,49,212.1,48.7z M212,46.4c-0.3,0.1-0.7,0.3-1.3,0.4c-0.3,0.1-0.6,0.1-0.7,0.2c-0.1,0.1-0.2,0.2-0.3,0.3
				c-0.1,0.1-0.1,0.3-0.1,0.5c0,0.3,0.1,0.5,0.3,0.7c0.2,0.2,0.4,0.3,0.7,0.3c0.3,0,0.6-0.1,0.8-0.2s0.4-0.4,0.5-0.6
				s0.2-0.6,0.2-1.1V46.4z"/>
			<path class="st1" d="M214.1,49.4v-5.9h0.7v0.8c0.2-0.3,0.4-0.6,0.6-0.7c0.3-0.2,0.5-0.2,0.9-0.2c0.3,0,0.5,0.1,0.7,0.2
				s0.4,0.2,0.5,0.4c0.1,0.2,0.2,0.4,0.3,0.6c0.1,0.3,0.1,0.7,0.1,1.2v3.6h-0.8v-3.6c0-0.4,0-0.8-0.1-1s-0.2-0.4-0.3-0.5
				c-0.2-0.1-0.3-0.2-0.5-0.2c-0.4,0-0.7,0.1-0.9,0.4c-0.2,0.3-0.3,0.8-0.3,1.5v3.2H214.1z"/>
			<path class="st1" d="M219.5,49.4v-1.1h0.9v1.1c0,0.4-0.1,0.8-0.2,1c-0.1,0.3-0.3,0.4-0.6,0.6l-0.2-0.4c0.2-0.1,0.3-0.2,0.4-0.4
				c0.1-0.2,0.1-0.4,0.1-0.8H219.5z"/>
			<path class="st1" d="M224.5,49.4v-8.2h2.3c0.6,0,1,0.1,1.3,0.2c0.4,0.1,0.7,0.4,1,0.7c0.3,0.3,0.5,0.8,0.7,1.3
				c0.2,0.5,0.2,1.2,0.2,1.9c0,0.9-0.1,1.7-0.4,2.4c-0.3,0.6-0.6,1.1-1,1.4s-1,0.4-1.7,0.4H224.5z M225.4,48.5h1.4
				c0.6,0,1-0.1,1.3-0.3c0.3-0.2,0.5-0.5,0.7-0.9c0.2-0.6,0.3-1.2,0.3-2c0-0.8-0.1-1.5-0.3-2c-0.2-0.5-0.5-0.8-0.9-1
				c-0.2-0.1-0.6-0.2-1.1-0.2h-1.4V48.5z"/>
			<path class="st1" d="M234.3,48.7c-0.3,0.3-0.6,0.5-0.9,0.6c-0.3,0.1-0.6,0.2-0.9,0.2c-0.5,0-0.9-0.2-1.2-0.5s-0.4-0.7-0.4-1.2
				c0-0.3,0.1-0.6,0.2-0.9c0.1-0.3,0.3-0.5,0.6-0.6s0.6-0.3,1.1-0.3c0.7-0.1,1.2-0.2,1.5-0.4l0-0.3c0-0.4-0.1-0.7-0.2-0.9
				c-0.2-0.2-0.5-0.4-0.9-0.4c-0.4,0-0.7,0.1-0.9,0.2s-0.3,0.5-0.4,0.9l-0.8-0.1c0.1-0.6,0.3-1.1,0.7-1.4c0.3-0.3,0.8-0.4,1.5-0.4
				c0.5,0,0.9,0.1,1.2,0.3s0.5,0.4,0.5,0.7c0.1,0.3,0.1,0.7,0.1,1.2v1.3c0,0.9,0,1.5,0.1,1.8s0.1,0.5,0.2,0.7h-0.9
				C234.4,49.2,234.3,49,234.3,48.7z M234.2,46.4c-0.3,0.1-0.7,0.3-1.3,0.4c-0.3,0.1-0.6,0.1-0.7,0.2c-0.1,0.1-0.2,0.2-0.3,0.3
				c-0.1,0.1-0.1,0.3-0.1,0.5c0,0.3,0.1,0.5,0.3,0.7c0.2,0.2,0.4,0.3,0.7,0.3c0.3,0,0.6-0.1,0.8-0.2c0.2-0.2,0.4-0.4,0.5-0.6
				c0.1-0.3,0.2-0.6,0.2-1.1V46.4z"/>
			<path class="st1" d="M239.4,49.4v-0.7c-0.1,0.3-0.3,0.5-0.6,0.7s-0.5,0.2-0.8,0.2c-0.6,0-1.1-0.3-1.5-0.8s-0.6-1.3-0.6-2.3
				c0-0.7,0.1-1.2,0.3-1.7c0.2-0.5,0.4-0.8,0.7-1c0.3-0.2,0.6-0.3,1-0.3c0.3,0,0.5,0.1,0.7,0.2c0.2,0.1,0.4,0.3,0.6,0.6v-2.9h0.8
				v8.2H239.4z M236.8,46.5c0,0.8,0.1,1.3,0.4,1.7c0.3,0.4,0.6,0.6,0.9,0.6c0.3,0,0.6-0.2,0.9-0.5c0.3-0.4,0.4-0.9,0.4-1.6
				c0-0.8-0.1-1.4-0.4-1.8c-0.3-0.4-0.6-0.6-1-0.6c-0.3,0-0.6,0.2-0.9,0.5S236.8,45.7,236.8,46.5z"/>
			<path class="st1" d="M241.5,49.4v-5.9h0.7v0.9c0.2-0.4,0.4-0.7,0.5-0.8c0.2-0.1,0.3-0.2,0.5-0.2c0.3,0,0.6,0.1,0.8,0.3l-0.3,0.9
				c-0.2-0.1-0.4-0.2-0.6-0.2c-0.2,0-0.3,0.1-0.5,0.2s-0.2,0.3-0.3,0.5c-0.1,0.4-0.2,0.8-0.2,1.2v3.1H241.5z"/>
			<path class="st1" d="M247.7,48.7c-0.3,0.3-0.6,0.5-0.9,0.6s-0.6,0.2-0.9,0.2c-0.5,0-0.9-0.2-1.2-0.5c-0.3-0.3-0.4-0.7-0.4-1.2
				c0-0.3,0.1-0.6,0.2-0.9c0.1-0.3,0.3-0.5,0.6-0.6c0.2-0.1,0.6-0.3,1.1-0.3c0.7-0.1,1.1-0.2,1.5-0.4l0-0.3c0-0.4-0.1-0.7-0.2-0.9
				c-0.2-0.2-0.5-0.4-0.9-0.4c-0.4,0-0.7,0.1-0.8,0.2c-0.2,0.2-0.3,0.5-0.4,0.9l-0.8-0.1c0.1-0.6,0.3-1.1,0.7-1.4
				c0.3-0.3,0.8-0.4,1.5-0.4c0.5,0,0.9,0.1,1.2,0.3s0.5,0.4,0.5,0.7s0.1,0.7,0.1,1.2v1.3c0,0.9,0,1.5,0.1,1.8s0.1,0.5,0.2,0.7h-0.9
				C247.8,49.2,247.7,49,247.7,48.7z M247.6,46.4c-0.3,0.1-0.7,0.3-1.3,0.4c-0.3,0.1-0.6,0.1-0.7,0.2c-0.1,0.1-0.2,0.2-0.3,0.3
				c-0.1,0.1-0.1,0.3-0.1,0.5c0,0.3,0.1,0.5,0.3,0.7c0.2,0.2,0.4,0.3,0.7,0.3c0.3,0,0.6-0.1,0.8-0.2s0.4-0.4,0.5-0.6
				s0.2-0.6,0.2-1.1V46.4z"/>
			<path class="st1" d="M255.4,48.7c-0.3,0.3-0.6,0.5-0.9,0.6c-0.3,0.1-0.6,0.2-0.9,0.2c-0.5,0-0.9-0.2-1.2-0.5s-0.4-0.7-0.4-1.2
				c0-0.3,0.1-0.6,0.2-0.9c0.1-0.3,0.3-0.5,0.6-0.6s0.6-0.3,1.1-0.3c0.7-0.1,1.2-0.2,1.5-0.4l0-0.3c0-0.4-0.1-0.7-0.2-0.9
				c-0.2-0.2-0.5-0.4-0.9-0.4c-0.4,0-0.7,0.1-0.9,0.2s-0.3,0.5-0.4,0.9l-0.8-0.1c0.1-0.6,0.3-1.1,0.7-1.4c0.3-0.3,0.8-0.4,1.5-0.4
				c0.5,0,0.9,0.1,1.2,0.3s0.5,0.4,0.5,0.7c0.1,0.3,0.1,0.7,0.1,1.2v1.3c0,0.9,0,1.5,0.1,1.8s0.1,0.5,0.2,0.7h-0.9
				C255.5,49.2,255.5,49,255.4,48.7z M255.4,46.4c-0.3,0.1-0.7,0.3-1.3,0.4c-0.3,0.1-0.6,0.1-0.7,0.2c-0.1,0.1-0.2,0.2-0.3,0.3
				c-0.1,0.1-0.1,0.3-0.1,0.5c0,0.3,0.1,0.5,0.3,0.7c0.2,0.2,0.4,0.3,0.7,0.3c0.3,0,0.6-0.1,0.8-0.2c0.2-0.2,0.4-0.4,0.5-0.6
				c0.1-0.3,0.2-0.6,0.2-1.1V46.4z"/>
			<path class="st1" d="M257.5,49.4v-5.9h0.7v0.8c0.2-0.3,0.4-0.6,0.6-0.7c0.3-0.2,0.5-0.2,0.9-0.2c0.3,0,0.5,0.1,0.7,0.2
				s0.4,0.2,0.5,0.4c0.1,0.2,0.2,0.4,0.3,0.6c0.1,0.3,0.1,0.7,0.1,1.2v3.6h-0.8v-3.6c0-0.4,0-0.8-0.1-1s-0.2-0.4-0.3-0.5
				c-0.2-0.1-0.3-0.2-0.5-0.2c-0.4,0-0.7,0.1-0.9,0.4c-0.2,0.3-0.3,0.8-0.3,1.5v3.2H257.5z"/>
			<path class="st1" d="M265.7,49.4v-0.7c-0.1,0.3-0.3,0.5-0.6,0.7c-0.2,0.2-0.5,0.2-0.8,0.2c-0.6,0-1.1-0.3-1.5-0.8
				s-0.6-1.3-0.6-2.3c0-0.7,0.1-1.2,0.3-1.7s0.4-0.8,0.7-1c0.3-0.2,0.6-0.3,1-0.3c0.3,0,0.5,0.1,0.7,0.2c0.2,0.1,0.4,0.3,0.6,0.6
				v-2.9h0.8v8.2H265.7z M263.2,46.5c0,0.8,0.1,1.3,0.4,1.7c0.3,0.4,0.6,0.6,0.9,0.6c0.3,0,0.6-0.2,0.9-0.5c0.3-0.4,0.4-0.9,0.4-1.6
				c0-0.8-0.1-1.4-0.4-1.8c-0.3-0.4-0.6-0.6-1-0.6c-0.3,0-0.6,0.2-0.9,0.5C263.3,45.1,263.2,45.7,263.2,46.5z"/>
			<path class="st1" d="M270.4,49.4v-8.2h0.9l3.5,6.4v-6.4h0.8v8.2h-0.9l-3.5-6.4v6.4H270.4z"/>
			<path class="st1" d="M280.2,48.7c-0.3,0.3-0.6,0.5-0.9,0.6s-0.6,0.2-0.9,0.2c-0.5,0-0.9-0.2-1.2-0.5s-0.4-0.7-0.4-1.2
				c0-0.3,0.1-0.6,0.2-0.9c0.1-0.3,0.3-0.5,0.6-0.6s0.6-0.3,1.1-0.3c0.7-0.1,1.1-0.2,1.5-0.4l0-0.3c0-0.4-0.1-0.7-0.2-0.9
				c-0.2-0.2-0.5-0.4-0.9-0.4c-0.4,0-0.7,0.1-0.9,0.2c-0.2,0.2-0.3,0.5-0.4,0.9l-0.8-0.1c0.1-0.6,0.3-1.1,0.7-1.4
				c0.3-0.3,0.8-0.4,1.5-0.4c0.5,0,0.9,0.1,1.2,0.3c0.3,0.2,0.5,0.4,0.5,0.7c0.1,0.3,0.1,0.7,0.1,1.2v1.3c0,0.9,0,1.5,0.1,1.8
				s0.1,0.5,0.2,0.7h-0.9C280.3,49.2,280.2,49,280.2,48.7z M280.1,46.4c-0.3,0.1-0.7,0.3-1.3,0.4c-0.3,0.1-0.6,0.1-0.7,0.2
				s-0.2,0.2-0.3,0.3s-0.1,0.3-0.1,0.5c0,0.3,0.1,0.5,0.3,0.7c0.2,0.2,0.4,0.3,0.7,0.3c0.3,0,0.6-0.1,0.8-0.2
				c0.2-0.2,0.4-0.4,0.5-0.6c0.1-0.3,0.2-0.6,0.2-1.1V46.4z"/>
			<path class="st1" d="M282.1,49.9l0.8,0.1c0,0.3,0.1,0.6,0.3,0.7c0.2,0.2,0.4,0.2,0.8,0.2c0.4,0,0.6-0.1,0.9-0.3
				c0.2-0.2,0.4-0.4,0.4-0.8c0-0.2,0.1-0.6,0.1-1.3c-0.2,0.3-0.4,0.4-0.6,0.6s-0.5,0.2-0.7,0.2c-0.6,0-1.1-0.2-1.4-0.7
				c-0.4-0.6-0.7-1.3-0.7-2.3c0-0.6,0.1-1.2,0.3-1.7c0.2-0.5,0.4-0.8,0.8-1c0.3-0.2,0.7-0.3,1-0.3c0.3,0,0.5,0.1,0.8,0.2
				s0.4,0.4,0.6,0.6v-0.7h0.8v5.1c0,0.9-0.1,1.6-0.2,2s-0.4,0.7-0.7,0.9c-0.3,0.2-0.7,0.3-1.2,0.3c-0.6,0-1.1-0.2-1.4-0.5
				C282.2,51,282,50.5,282.1,49.9z M282.7,46.3c0,0.8,0.1,1.3,0.4,1.7c0.3,0.4,0.6,0.5,0.9,0.5c0.4,0,0.7-0.2,0.9-0.5
				s0.4-0.9,0.4-1.7c0-0.7-0.1-1.3-0.4-1.7c-0.3-0.4-0.6-0.5-1-0.5c-0.3,0-0.6,0.2-0.9,0.5C282.9,45.1,282.7,45.6,282.7,46.3z"/>
			<path class="st1" d="M290.5,48.7c-0.3,0.3-0.6,0.5-0.9,0.6s-0.6,0.2-0.9,0.2c-0.5,0-0.9-0.2-1.2-0.5c-0.3-0.3-0.4-0.7-0.4-1.2
				c0-0.3,0.1-0.6,0.2-0.9c0.1-0.3,0.3-0.5,0.6-0.6c0.2-0.1,0.6-0.3,1.1-0.3c0.7-0.1,1.1-0.2,1.5-0.4l0-0.3c0-0.4-0.1-0.7-0.2-0.9
				c-0.2-0.2-0.5-0.4-0.9-0.4c-0.4,0-0.7,0.1-0.8,0.2c-0.2,0.2-0.3,0.5-0.4,0.9l-0.8-0.1c0.1-0.6,0.3-1.1,0.7-1.4
				c0.3-0.3,0.8-0.4,1.5-0.4c0.5,0,0.9,0.1,1.2,0.3s0.5,0.4,0.5,0.7s0.1,0.7,0.1,1.2v1.3c0,0.9,0,1.5,0.1,1.8s0.1,0.5,0.2,0.7h-0.9
				C290.6,49.2,290.5,49,290.5,48.7z M290.4,46.4c-0.3,0.1-0.7,0.3-1.3,0.4c-0.3,0.1-0.6,0.1-0.7,0.2c-0.1,0.1-0.2,0.2-0.3,0.3
				c-0.1,0.1-0.1,0.3-0.1,0.5c0,0.3,0.1,0.5,0.3,0.7c0.2,0.2,0.4,0.3,0.7,0.3c0.3,0,0.6-0.1,0.8-0.2s0.4-0.4,0.5-0.6
				s0.2-0.6,0.2-1.1V46.4z"/>
			<path class="st1" d="M292.5,49.4v-5.9h0.7v0.9c0.2-0.4,0.4-0.7,0.5-0.8c0.2-0.1,0.3-0.2,0.5-0.2c0.3,0,0.6,0.1,0.8,0.3l-0.3,0.9
				c-0.2-0.1-0.4-0.2-0.6-0.2c-0.2,0-0.3,0.1-0.5,0.2c-0.1,0.1-0.2,0.3-0.3,0.5c-0.1,0.4-0.2,0.8-0.2,1.2v3.1H292.5z"/>
			<path class="st1" d="M298.3,49.4v-8.2h0.9v3.4h3.5v-3.4h0.9v8.2h-0.9v-3.9h-3.5v3.9H298.3z"/>
			<path class="st1" d="M308,48.7c-0.3,0.3-0.6,0.5-0.9,0.6c-0.3,0.1-0.6,0.2-0.9,0.2c-0.5,0-0.9-0.2-1.2-0.5
				c-0.3-0.3-0.4-0.7-0.4-1.2c0-0.3,0.1-0.6,0.2-0.9c0.1-0.3,0.3-0.5,0.6-0.6s0.6-0.3,1.1-0.3c0.7-0.1,1.1-0.2,1.5-0.4l0-0.3
				c0-0.4-0.1-0.7-0.2-0.9c-0.2-0.2-0.5-0.4-0.9-0.4c-0.4,0-0.7,0.1-0.9,0.2c-0.2,0.2-0.3,0.5-0.4,0.9l-0.8-0.1
				c0.1-0.6,0.3-1.1,0.7-1.4c0.3-0.3,0.8-0.4,1.5-0.4c0.5,0,0.9,0.1,1.2,0.3c0.3,0.2,0.5,0.4,0.5,0.7c0.1,0.3,0.1,0.7,0.1,1.2v1.3
				c0,0.9,0,1.5,0.1,1.8c0,0.2,0.1,0.5,0.2,0.7h-0.9C308.1,49.2,308.1,49,308,48.7z M308,46.4c-0.3,0.1-0.7,0.3-1.3,0.4
				c-0.3,0.1-0.6,0.1-0.7,0.2c-0.1,0.1-0.2,0.2-0.3,0.3c-0.1,0.1-0.1,0.3-0.1,0.5c0,0.3,0.1,0.5,0.3,0.7c0.2,0.2,0.4,0.3,0.7,0.3
				c0.3,0,0.6-0.1,0.8-0.2c0.2-0.2,0.4-0.4,0.5-0.6c0.1-0.3,0.2-0.6,0.2-1.1V46.4z"/>
			<path class="st1" d="M311.4,49.4l-1.8-5.9h0.9l1,3.5c0.1,0.4,0.2,0.8,0.3,1.2c0.1-0.3,0.2-0.7,0.3-1.1l1.1-3.6h0.8l-1.8,5.9
				H311.4z"/>
			<path class="st1" d="M318,47.5l0.8,0.1c-0.1,0.6-0.4,1.1-0.8,1.4c-0.4,0.3-0.8,0.5-1.4,0.5c-0.7,0-1.2-0.3-1.7-0.8
				c-0.4-0.5-0.6-1.3-0.6-2.3c0-1,0.2-1.8,0.6-2.3c0.4-0.5,1-0.8,1.6-0.8c0.6,0,1.1,0.3,1.6,0.8c0.4,0.5,0.6,1.3,0.6,2.3l0,0.3h-3.6
				c0,0.7,0.2,1.2,0.5,1.5c0.3,0.3,0.6,0.5,1,0.5C317.3,48.7,317.7,48.3,318,47.5z M315.3,45.9h2.7c0-0.5-0.1-0.9-0.3-1.1
				c-0.3-0.4-0.6-0.6-1-0.6c-0.4,0-0.7,0.2-0.9,0.5C315.5,45,315.3,45.4,315.3,45.9z"/>
			<path class="st1" d="M319.8,49.4v-8.2h0.8v8.2H319.8z"/>
			<path class="st1" d="M321.9,42.4v-1.2h0.8v1.2H321.9z M321.9,49.4v-5.9h0.8v5.9H321.9z"/>
			<path class="st1" d="M324.2,49.4v-1.1h0.9v1.1c0,0.4-0.1,0.8-0.2,1c-0.1,0.3-0.3,0.4-0.6,0.6l-0.2-0.4c0.2-0.1,0.3-0.2,0.4-0.4
				s0.1-0.4,0.1-0.8H324.2z"/>
			<path class="st1" d="M329.2,49.4v-8.2h2.3c0.6,0,1,0.1,1.3,0.2c0.4,0.1,0.7,0.4,1,0.7c0.3,0.3,0.5,0.8,0.7,1.3
				c0.2,0.5,0.2,1.2,0.2,1.9c0,0.9-0.1,1.7-0.4,2.4c-0.3,0.6-0.6,1.1-1,1.4s-1,0.4-1.7,0.4H329.2z M330.1,48.5h1.4
				c0.6,0,1-0.1,1.3-0.3c0.3-0.2,0.5-0.5,0.7-0.9c0.2-0.6,0.3-1.2,0.3-2c0-0.8-0.1-1.5-0.3-2c-0.2-0.5-0.5-0.8-0.9-1
				c-0.2-0.1-0.6-0.2-1.1-0.2h-1.4V48.5z"/>
			<path class="st1" d="M339,48.7c-0.3,0.3-0.6,0.5-0.9,0.6c-0.3,0.1-0.6,0.2-0.9,0.2c-0.5,0-0.9-0.2-1.2-0.5
				c-0.3-0.3-0.4-0.7-0.4-1.2c0-0.3,0.1-0.6,0.2-0.9c0.1-0.3,0.3-0.5,0.6-0.6s0.6-0.3,1.1-0.3c0.7-0.1,1.1-0.2,1.5-0.4l0-0.3
				c0-0.4-0.1-0.7-0.2-0.9c-0.2-0.2-0.5-0.4-0.9-0.4c-0.4,0-0.7,0.1-0.9,0.2c-0.2,0.2-0.3,0.5-0.4,0.9l-0.8-0.1
				c0.1-0.6,0.3-1.1,0.7-1.4c0.3-0.3,0.8-0.4,1.5-0.4c0.5,0,0.9,0.1,1.2,0.3c0.3,0.2,0.5,0.4,0.5,0.7c0.1,0.3,0.1,0.7,0.1,1.2v1.3
				c0,0.9,0,1.5,0.1,1.8c0,0.2,0.1,0.5,0.2,0.7h-0.9C339.1,49.2,339,49,339,48.7z M338.9,46.4c-0.3,0.1-0.7,0.3-1.3,0.4
				c-0.3,0.1-0.6,0.1-0.7,0.2c-0.1,0.1-0.2,0.2-0.3,0.3c-0.1,0.1-0.1,0.3-0.1,0.5c0,0.3,0.1,0.5,0.3,0.7c0.2,0.2,0.4,0.3,0.7,0.3
				c0.3,0,0.6-0.1,0.8-0.2c0.2-0.2,0.4-0.4,0.5-0.6c0.1-0.3,0.2-0.6,0.2-1.1V46.4z"/>
			<path class="st1" d="M341,49.4v-5.9h0.7v0.8c0.2-0.3,0.4-0.5,0.6-0.7c0.3-0.2,0.5-0.3,0.8-0.3c0.3,0,0.6,0.1,0.9,0.3
				s0.4,0.4,0.5,0.8c0.2-0.3,0.4-0.6,0.7-0.8c0.3-0.2,0.5-0.3,0.8-0.3c0.5,0,0.8,0.2,1.1,0.5c0.3,0.3,0.4,0.8,0.4,1.5v4.1h-0.8v-3.7
				c0-0.4,0-0.7-0.1-0.9c-0.1-0.2-0.2-0.3-0.3-0.4c-0.1-0.1-0.3-0.1-0.5-0.1c-0.4,0-0.6,0.1-0.9,0.4c-0.2,0.3-0.3,0.7-0.3,1.3v3.4
				h-0.8v-3.9c0-0.5-0.1-0.8-0.2-1c-0.1-0.2-0.4-0.3-0.6-0.3c-0.4,0-0.7,0.2-0.9,0.5c-0.2,0.3-0.3,0.9-0.3,1.7v3.1H341z"/>
			<path class="st1" d="M351.9,48.7c-0.3,0.3-0.6,0.5-0.9,0.6c-0.3,0.1-0.6,0.2-0.9,0.2c-0.5,0-0.9-0.2-1.2-0.5
				c-0.3-0.3-0.4-0.7-0.4-1.2c0-0.3,0.1-0.6,0.2-0.9c0.1-0.3,0.3-0.5,0.6-0.6s0.6-0.3,1.1-0.3c0.7-0.1,1.1-0.2,1.5-0.4l0-0.3
				c0-0.4-0.1-0.7-0.2-0.9c-0.2-0.2-0.5-0.4-0.9-0.4c-0.4,0-0.7,0.1-0.9,0.2c-0.2,0.2-0.3,0.5-0.4,0.9l-0.8-0.1
				c0.1-0.6,0.3-1.1,0.7-1.4c0.3-0.3,0.8-0.4,1.5-0.4c0.5,0,0.9,0.1,1.2,0.3c0.3,0.2,0.5,0.4,0.5,0.7c0.1,0.3,0.1,0.7,0.1,1.2v1.3
				c0,0.9,0,1.5,0.1,1.8c0,0.2,0.1,0.5,0.2,0.7H352C351.9,49.2,351.9,49,351.9,48.7z M351.8,46.4c-0.3,0.1-0.7,0.3-1.3,0.4
				c-0.3,0.1-0.6,0.1-0.7,0.2c-0.1,0.1-0.2,0.2-0.3,0.3c-0.1,0.1-0.1,0.3-0.1,0.5c0,0.3,0.1,0.5,0.3,0.7c0.2,0.2,0.4,0.3,0.7,0.3
				c0.3,0,0.6-0.1,0.8-0.2c0.2-0.2,0.4-0.4,0.5-0.6c0.1-0.3,0.2-0.6,0.2-1.1V46.4z"/>
			<path class="st1" d="M353.9,49.4v-5.9h0.7v0.8c0.2-0.3,0.4-0.6,0.6-0.7c0.3-0.2,0.5-0.2,0.9-0.2c0.3,0,0.5,0.1,0.7,0.2
				s0.4,0.2,0.5,0.4c0.1,0.2,0.2,0.4,0.3,0.6c0.1,0.3,0.1,0.7,0.1,1.2v3.6H357v-3.6c0-0.4,0-0.8-0.1-1c-0.1-0.2-0.2-0.4-0.3-0.5
				c-0.2-0.1-0.3-0.2-0.5-0.2c-0.4,0-0.7,0.1-0.9,0.4c-0.2,0.3-0.3,0.8-0.3,1.5v3.2H353.9z"/>
			<path class="st1" d="M361,46.9v-0.8h5.2v0.8H361z"/>
			<path class="st1" d="M369.1,47.3l0.8-0.1c0.2,1.1,0.6,1.6,1.3,1.6c0.4,0,0.7-0.2,1-0.5s0.4-0.7,0.4-1.2c0-0.5-0.1-0.9-0.4-1.2
				c-0.3-0.3-0.6-0.4-0.9-0.4c-0.2,0-0.3,0-0.6,0.1l0.1-0.9l0.1,0c0.4,0,0.7-0.1,1-0.4c0.3-0.2,0.4-0.6,0.4-1c0-0.4-0.1-0.7-0.3-0.9
				c-0.2-0.2-0.5-0.3-0.8-0.3c-0.3,0-0.6,0.1-0.8,0.4s-0.4,0.6-0.4,1.1l-0.8-0.2c0.1-0.7,0.3-1.2,0.7-1.6c0.4-0.4,0.8-0.5,1.3-0.5
				c0.5,0,1,0.2,1.4,0.6s0.6,0.9,0.6,1.5c0,0.4-0.1,0.7-0.2,1s-0.4,0.5-0.7,0.7c0.3,0.1,0.5,0.2,0.7,0.4c0.2,0.2,0.3,0.4,0.4,0.7
				c0.1,0.3,0.2,0.6,0.2,1c0,0.8-0.2,1.4-0.7,1.8c-0.4,0.5-1,0.7-1.6,0.7c-0.6,0-1-0.2-1.4-0.6C369.4,48.5,369.2,48,369.1,47.3z"/>
			<path class="st1" d="M374.4,47.5l0.8-0.1c0.1,0.9,0.5,1.3,1.1,1.3c0.3,0,0.5-0.1,0.7-0.3c0.2-0.2,0.4-0.5,0.6-1
				c0.2-0.5,0.2-1,0.2-1.7v-0.2c-0.2,0.3-0.4,0.6-0.7,0.8c-0.3,0.2-0.6,0.3-0.9,0.3c-0.5,0-1-0.2-1.4-0.7c-0.4-0.5-0.6-1.1-0.6-2
				c0-0.9,0.2-1.5,0.6-2c0.4-0.5,0.9-0.7,1.5-0.7c0.4,0,0.8,0.1,1.2,0.4s0.6,0.7,0.8,1.2c0.2,0.5,0.3,1.3,0.3,2.3
				c0,1.1-0.1,2-0.3,2.6c-0.2,0.6-0.5,1.1-0.9,1.4c-0.4,0.3-0.8,0.4-1.2,0.4c-0.5,0-0.9-0.2-1.3-0.5
				C374.7,48.7,374.5,48.2,374.4,47.5z M377.8,43.9c0-0.6-0.1-1-0.4-1.4c-0.3-0.3-0.6-0.5-0.9-0.5c-0.4,0-0.7,0.2-0.9,0.5
				c-0.3,0.4-0.4,0.8-0.4,1.4c0,0.5,0.1,1,0.4,1.3s0.6,0.5,0.9,0.5c0.4,0,0.7-0.2,0.9-0.5C377.6,45,377.8,44.5,377.8,43.9z"/>
			<path class="st1" d="M383.7,43.2l-0.8,0.1c-0.1-0.4-0.2-0.7-0.3-0.9c-0.2-0.3-0.5-0.4-0.8-0.4c-0.5,0-0.9,0.3-1.1,0.9
				c-0.2,0.5-0.4,1.3-0.4,2.3c0.2-0.4,0.4-0.6,0.7-0.8c0.3-0.2,0.6-0.3,0.9-0.3c0.5,0,1,0.2,1.4,0.7c0.4,0.5,0.6,1.1,0.6,1.9
				c0,0.5-0.1,1-0.3,1.5s-0.5,0.8-0.8,1c-0.3,0.2-0.7,0.3-1,0.3c-0.7,0-1.2-0.3-1.7-0.9c-0.4-0.6-0.7-1.6-0.7-3.1
				c0-1.6,0.2-2.7,0.7-3.4s1-1,1.7-1c0.5,0,0.9,0.2,1.3,0.5C383.4,42.1,383.6,42.6,383.7,43.2z M380.4,46.8c0,0.6,0.1,1.1,0.4,1.4
				s0.6,0.5,1,0.5c0.3,0,0.6-0.2,0.9-0.5c0.3-0.3,0.4-0.8,0.4-1.4c0-0.6-0.1-1-0.4-1.3c-0.3-0.3-0.6-0.5-0.9-0.5
				c-0.4,0-0.7,0.2-0.9,0.5C380.5,45.8,380.4,46.2,380.4,46.8z"/>
			<path class="st1" d="M391.5,48.5v1h-4.4c0-0.4,0.1-0.8,0.4-1.3c0.2-0.5,0.7-1.1,1.3-1.7c0.8-0.8,1.3-1.4,1.5-1.8
				c0.2-0.4,0.4-0.8,0.4-1.2c0-0.4-0.1-0.8-0.4-1s-0.5-0.4-0.9-0.4c-0.4,0-0.7,0.1-0.9,0.4c-0.2,0.3-0.4,0.7-0.4,1.2l-0.8-0.1
				c0.1-0.8,0.3-1.4,0.7-1.8c0.4-0.4,0.9-0.6,1.5-0.6c0.7,0,1.2,0.2,1.5,0.7c0.3,0.5,0.5,1,0.5,1.6c0,0.5-0.1,1-0.4,1.5
				c-0.3,0.5-0.8,1.1-1.6,1.9c-0.5,0.5-0.8,0.8-0.9,1c-0.1,0.2-0.3,0.4-0.3,0.5H391.5z"/>
			<path class="st1" d="M395.4,49.4h-0.8V43c-0.2,0.2-0.4,0.5-0.8,0.7c-0.3,0.2-0.6,0.4-0.9,0.5v-1c0.5-0.3,0.8-0.6,1.2-1
				c0.3-0.4,0.6-0.7,0.7-1.1h0.5V49.4z"/>
			<path class="st1" d="M397.5,45.4c0-1.4,0.2-2.4,0.5-3.1s0.9-1.1,1.6-1.1c0.6,0,1.1,0.3,1.5,0.9c0.4,0.7,0.7,1.8,0.7,3.3
				c0,1.4-0.2,2.4-0.5,3.1c-0.4,0.7-0.9,1.1-1.6,1.1c-0.6,0-1.2-0.3-1.6-0.9C397.7,48,397.5,46.9,397.5,45.4z M398.4,45.4
				c0,1.3,0.1,2.2,0.4,2.7c0.3,0.5,0.6,0.7,1,0.7c0.4,0,0.7-0.2,0.9-0.7s0.4-1.3,0.4-2.7c0-1.3-0.1-2.2-0.4-2.7s-0.6-0.7-1-0.7
				c-0.4,0-0.7,0.2-0.9,0.7C398.5,43.2,398.4,44.1,398.4,45.4z"/>
		</g>
		<polygon class="st2" points="267.7,15.2 267.7,17.8 259,17.8 259,6.8 262.4,6.8 262.4,15.2 		"/>
		<polygon class="st2" points="286,8.7 286,11.1 291.3,11.1 291.3,13.2 286,13.2 286,15.6 291.8,15.6 291.8,17.8 282.7,17.8 
			282.7,6.8 291.8,6.8 291.8,8.7 		"/>
		<polygon class="st2" points="276.4,8.7 276.4,11.2 280.6,11.2 280.6,13.2 276.4,13.2 276.4,17.8 273,17.8 273,6.8 281.4,6.8 
			281.4,8.7 		"/>
		<rect x="268.7" y="10.2" class="st2" width="3.3" height="7.6"/>
		<polygon class="st3" points="272,6.7 268.6,9.5 268.6,6.7 		"/>
		<rect x="275.6" y="22.6" class="st2" width="3.3" height="7.6"/>
		<polygon class="st3" points="279.2,18.8 275.9,21.6 275.9,18.8 		"/>
		<polygon class="st2" points="261.8,18.7 263.5,25.1 265.3,18.7 268.6,18.7 270.3,25.1 272,18.7 275,18.7 272.2,30.3 268.8,30.3 
			267,23.2 264.7,30.3 261.4,30.3 258.9,18.7 		"/>
		<polygon class="st2" points="291.1,19 291.1,30.3 287.8,30.3 283.5,24 283.5,30.3 280.1,30.3 280.1,19 283,19 283.5,19.7 
			287.8,26.2 287.8,19 		"/>
		<path class="st2" d="M298.8,22h3.1c-0.2-1.4-1.1-2.5-2.4-3c-1.7-0.7-3.5-0.6-5.2,0.1c-0.7,0.3-1.3,0.8-1.6,1.4
			c-0.2,0.5-0.3,1-0.2,1.6c0.2,1.2,1,2.2,2.2,2.6c1.9,0.7,3.8,0.8,4.2,2c0.1,0.4,0,0.7-0.2,1c-1.1,1.3-2.3,0.7-3.6-1.3h-3
			c0.3,2.4,1.9,3.5,4.5,3.9c0.4,0.1,0.9,0.1,1.4,0c2.9-0.4,4.4-1.6,4.5-3.7c0-0.4,0-0.9-0.2-1.3c-1-2.6-4.5-1.9-6-3
			c-0.5-0.4-0.7-1.1-0.3-1.7c0.1-0.2,0.3-0.4,0.6-0.4C297.3,20,298.5,20.8,298.8,22z"/>
		<line class="st4" x1="251.7" y1="6.3" x2="251.7" y2="30"/>
		<polygon class="st3" points="115.4,14.3 118.8,14.3 115.9,27.1 121,22.2 122.1,14.3 124.8,14.3 124.8,18.2 128.5,14.5 130.2,14.5 
			123.5,21.3 123,26.7 133.7,14.3 135.8,14.3 121.8,30.3 119.4,30.3 120.7,24.3 114.5,30.3 112.6,30.3 		"/>
		<polygon class="st3" points="166.3,14 169,14 165.1,22 174.5,14 176.8,14 167.4,21.7 170.2,28.7 167.2,30.3 164.6,23.2 
			161.3,29.5 158.2,29.5 		"/>
		<polygon class="st3" points="179.7,14.5 182.7,14.5 178.9,21.3 184.9,21.3 188.3,14.5 191.7,14.5 183.5,30.3 180.5,30.3 
			184.3,23.3 177.9,23.3 174.7,30.3 171.4,30.3 		"/>
		<path class="st3" d="M197.6,14.6v2l-12.2,13.7h2.1l4.1-5.6h5.3l-0.8,5.6h2.7l1.7-15.7L197.6,14.6z M197.1,23.4h-3.9l3.9-4.6V23.4z
			"/>
		<path class="st3" d="M214.6,14.5h-6.2l-7.8,15.7h3.2l2.9-7l1.8,7l3.1-1.3l-1.8-6.3C214.8,20.3,218.5,16,214.6,14.5z M213.2,18.9
			c-0.5,2.7-5.6,2.8-5.6,2.8c1.1-1.7,1.7-5.2,3.3-5.6C212.1,15.8,213.6,16.2,213.2,18.9L213.2,18.9z"/>
		<path class="st3" d="M226.9,14.7h-6.1l-7.6,15.5h6.7C225.1,30.3,237.6,16.5,226.9,14.7z M220.9,28.5h-4l6-12
			C232.8,16.2,225.8,28.2,220.9,28.5L220.9,28.5z"/>
		<polygon class="st3" points="234.9,14.7 243.7,14.7 242.6,16.5 239.5,16.3 232.6,30.3 229.8,30.3 237,16.2 232.9,16.2 		"/>
		<path class="st3" d="M146.3,14.8c-2.1-2.3-7.3-0.9-11.5,3.1s-5.9,9-3.8,11.3s7.3,0.9,11.5-3.1S148.4,17,146.3,14.8z M142.1,24.8
			c-2.4,2.8-5.9,3.8-7.7,2.2s-1.4-5.1,1-7.9s5.9-3.8,7.7-2.2C144.9,18.4,144.5,21.9,142.1,24.8L142.1,24.8z"/>
		<path class="st3" d="M157.4,27.8c-4.4,3.1-9.8,3.7-10.7-0.6c-0.2-1.1-0.1-2.2,0.4-3.3c1.5-3.7,4.5-6.6,8.2-8
			c0.6-0.3,1.3-0.6,1.9-0.9c2.6-0.9,4-0.9,5.4-0.3c0.5,0.4,0.6,1.1,0.2,1.6c0,0.1-0.1,0.1-0.1,0.2c-0.9,0.8-2,0.8-3.9,0.5
			c-3.5-0.8-6.1,1.2-8.5,5.9c-0.4,0.9-0.5,1.8-0.2,2.8c0.7,2.9,3.7,3.2,7.3,2c0.1,0,0.2,0,0.2,0.1C157.4,27.7,157.4,27.8,157.4,27.8
			z"/>
		<path class="st3" d="M126.4,0c-7.9,7.8-17.3,17.5-27.3,28c6.3-8.1,12.4-16,16.4-21.6C119.6,5.2,123.4,3,126.4,0z"/>
		<path class="st3" d="M114.5,6.6c-3.8,4.4-8.8,9.5-14.3,14.9c3.8-5.1,7.4-10.1,10.1-14.1C111.7,7.2,113.1,7,114.5,6.6z"/>
		<path class="st3" d="M109.6,7.5c-2.3,2.4-4.8,4.8-7.6,7.3c1.7-2.4,3.2-4.8,4.6-7.2C107.6,7.6,108.6,7.6,109.6,7.5z"/>
		<path class="st3" d="M105.6,7.6c-1.3,1.5-2.5,3-3.6,4.7l1.4-4.8C104.1,7.6,104.9,7.6,105.6,7.6z"/>
	</g>
</g>
</svg>
