<svg xmlns="http://www.w3.org/2000/svg" viewBox="0 0 420.05 51.82"><defs><style>.cls-1{fill:#1d1d1b;}.cls-2{fill:#0973ae;}.cls-3{fill:#de1e1b;}.cls-4{fill:none;stroke:#7a7a7c;stroke-miterlimit:10;}</style></defs><title>wock bold</title><g id="Layer_2" data-name="Layer 2"><g id="Layer_1-2" data-name="Layer 1"><path class="cls-1" d="M1.1,45a1.67,1.67,0,0,1-.7-.67,2.07,2.07,0,0,1-.24-1,2.14,2.14,0,0,1,.54-1.53,1.91,1.91,0,0,1,1.46-.57,1.81,1.81,0,0,1,1.48.61,2.24,2.24,0,0,1,.51,1.48,2.08,2.08,0,0,1-.25,1,1.66,1.66,0,0,1-.67.67,1.9,1.9,0,0,1,.85.78A2.52,2.52,0,0,1,4.36,47a3.06,3.06,0,0,1-.28,1.34,2.07,2.07,0,0,1-.77.89,2,2,0,0,1-1.1.31,2.07,2.07,0,0,1-1.58-.67A2.55,2.55,0,0,1,0,47.07a2.64,2.64,0,0,1,.29-1.27A1.92,1.92,0,0,1,1.1,45Zm.14,1.93a1.62,1.62,0,0,0,.28,1,.82.82,0,0,0,.66.36A.79.79,0,0,0,2.84,48a1.65,1.65,0,0,0,.26-1A1.45,1.45,0,0,0,2.83,46a.8.8,0,0,0-1.32,0A1.44,1.44,0,0,0,1.25,46.92Zm.12-3.5a1.08,1.08,0,0,0,.22.73.72.72,0,0,0,.56.26.73.73,0,0,0,.57-.26A1.07,1.07,0,0,0,3,43.42a1.05,1.05,0,0,0-.22-.72.71.71,0,0,0-.56-.26.73.73,0,0,0-.58.26A1,1,0,0,0,1.37,43.42Z"/><path class="cls-1" d="M5.16,42.8V41.34H9.5v1.14a8.64,8.64,0,0,0-1.08,1.86,12.75,12.75,0,0,0-.85,2.58,11.78,11.78,0,0,0-.3,2.5H6a13,13,0,0,1,.57-3.48A12.56,12.56,0,0,1,8,42.8Z"/><path class="cls-1" d="M10.21,47.23V45.67h2.5v1.57Z"/><path class="cls-1" d="M19.65,49.42H18.2l-.58-1.85H15l-.55,1.85H13l2.58-8.18H17Zm-2.46-3.24-.91-3-.9,3Z"/><path class="cls-1" d="M20.31,47.85h1.27V49a3.46,3.46,0,0,1-.22,1.42,1.72,1.72,0,0,1-.9.85l-.25-.65a1.11,1.11,0,0,0,.54-.42,1.5,1.5,0,0,0,.18-.76h-.61Z"/><path class="cls-1" d="M25.17,46.75l1.31-.16q.22,1.57,1.44,1.57a1.35,1.35,0,0,0,1-.32,1,1,0,0,0,.35-.8.88.88,0,0,0-.12-.47.89.89,0,0,0-.37-.32,10.16,10.16,0,0,0-1.2-.42,4.05,4.05,0,0,1-1.25-.57,2.15,2.15,0,0,1-.63-.81,2.5,2.5,0,0,1-.23-1.07,2.42,2.42,0,0,1,.3-1.21,2,2,0,0,1,.83-.81,2.82,2.82,0,0,1,1.31-.27,2.5,2.5,0,0,1,1.82.64,2.58,2.58,0,0,1,.69,1.84L29,43.64a1.48,1.48,0,0,0-.38-.92,1.2,1.2,0,0,0-.83-.26,1.33,1.33,0,0,0-.83.23.7.7,0,0,0-.29.57.71.71,0,0,0,.27.56,3.73,3.73,0,0,0,1.22.5,5,5,0,0,1,1.46.62,2.11,2.11,0,0,1,.69.84A3,3,0,0,1,30.55,47a2.38,2.38,0,0,1-2.67,2.52Q25.44,49.56,25.17,46.75Z"/><path class="cls-1" d="M31.67,42.68V41.23h1.27v1.45Zm0,6.73V43.49h1.27v5.93Z"/><path class="cls-1" d="M34.24,49.42V41.23h1.27v8.18Z"/><path class="cls-1" d="M38.15,49.42,36.2,43.49h1.33l.91,3,.26,1,.27-1,.92-3h1.3l-1.91,5.93Z"/><path class="cls-1" d="M44.76,47.54,46,47.8a2.54,2.54,0,0,1-.79,1.33,2.21,2.21,0,0,1-2.95-.29,3.62,3.62,0,0,1-.68-2.35,3.8,3.8,0,0,1,.69-2.38,1.82,1.82,0,0,1,1.51-.75,1.91,1.91,0,0,1,1.62.77,4.26,4.26,0,0,1,.67,2.61v.18H42.9A1.79,1.79,0,0,0,43.21,48a.9.9,0,0,0,.73.39Q44.55,48.38,44.76,47.54Zm.07-1.59a1.74,1.74,0,0,0-.29-1,.82.82,0,0,0-.66-.35.82.82,0,0,0-.68.36,1.65,1.65,0,0,0-.28,1Z"/><path class="cls-1" d="M48.33,49.42H47.06V43.49h1.18v.84a2.58,2.58,0,0,1,.54-.79.85.85,0,0,1,.55-.2,1.37,1.37,0,0,1,.83.3L49.77,45a1,1,0,0,0-.6-.26.64.64,0,0,0-.47.2,1.33,1.33,0,0,0-.29.72,13.51,13.51,0,0,0-.09,1.91Z"/><path class="cls-1" d="M53.26,49.42V41.23h1.33v8.18Z"/><path class="cls-1" d="M60.23,49.42H59v-3a6.45,6.45,0,0,0-.07-1.21.83.83,0,0,0-.27-.46.68.68,0,0,0-.44-.16.9.9,0,0,0-.58.21,1.11,1.11,0,0,0-.36.58,6,6,0,0,0-.1,1.39v2.69H55.85V43.49H57v.87a2.34,2.34,0,0,1,.71-.75,1.59,1.59,0,0,1,.87-.25,1.48,1.48,0,0,1,1.47,1,4.65,4.65,0,0,1,.15,1.33Z"/><path class="cls-1" d="M65.92,49.42H64.74v-.87a2.17,2.17,0,0,1-.69.76,1.5,1.5,0,0,1-.82.25,1.72,1.72,0,0,1-1.4-.81,3.87,3.87,0,0,1-.6-2.32,3.78,3.78,0,0,1,.58-2.3,1.74,1.74,0,0,1,1.44-.77,1.45,1.45,0,0,1,.75.21,2.12,2.12,0,0,1,.64.62V41.23h1.27Zm-3.38-3.09a4,4,0,0,0,.13,1.2,1.25,1.25,0,0,0,.39.59.84.84,0,0,0,1.29-.26,2.5,2.5,0,0,0,.31-1.38,2.75,2.75,0,0,0-.3-1.48.86.86,0,0,0-1.51,0A2.34,2.34,0,0,0,62.53,46.32Z"/><path class="cls-1" d="M70.32,49.42v-.89a2,2,0,0,1-.69.75,1.65,1.65,0,0,1-.9.27,1.49,1.49,0,0,1-.85-.25,1.5,1.5,0,0,1-.56-.72,3.8,3.8,0,0,1-.18-1.35V43.49h1.27v2.72a11.21,11.21,0,0,0,.06,1.48.82.82,0,0,0,.26.49.7.7,0,0,0,.48.17.9.9,0,0,0,.59-.23,1.06,1.06,0,0,0,.35-.58A8.59,8.59,0,0,0,70.23,46v-2.5h1.27v5.93Z"/><path class="cls-1" d="M72.39,47.73l1.27-.24a1,1,0,0,0,1,.93,1.09,1.09,0,0,0,.68-.18.56.56,0,0,0,.23-.46.45.45,0,0,0-.1-.31.91.91,0,0,0-.42-.19,5.6,5.6,0,0,1-2-.8,1.66,1.66,0,0,1-.53-1.3,1.75,1.75,0,0,1,.52-1.33,2.09,2.09,0,0,1,1.5-.5,2.35,2.35,0,0,1,1.43.37,2,2,0,0,1,.69,1.2l-1.2.27a.84.84,0,0,0-.9-.71,1.22,1.22,0,0,0-.67.14.42.42,0,0,0-.2.35.38.38,0,0,0,.18.32,5,5,0,0,0,1.13.41,3.08,3.08,0,0,1,1.44.73,1.68,1.68,0,0,1,.38,1.15A1.88,1.88,0,0,1,76.29,49a2.22,2.22,0,0,1-1.61.56,2.38,2.38,0,0,1-1.52-.47A2.25,2.25,0,0,1,72.39,47.73Z"/><path class="cls-1" d="M80.17,43.49v1.25h-.87v2.39a5.29,5.29,0,0,0,0,.9.3.3,0,0,0,.31.22,1.36,1.36,0,0,0,.51-.15l.11,1.22a2.09,2.09,0,0,1-1,.23,1.2,1.2,0,0,1-.78-.23,1.16,1.16,0,0,1-.39-.68A7.07,7.07,0,0,1,78,47.33V44.74h-.58V43.49H78V42.31l1.27-.92v2.09Z"/><path class="cls-1" d="M82.28,49.42H81V43.49h1.18v.84a2.58,2.58,0,0,1,.54-.79.85.85,0,0,1,.55-.2,1.37,1.37,0,0,1,.83.3L83.72,45a1,1,0,0,0-.6-.26.64.64,0,0,0-.47.2,1.33,1.33,0,0,0-.29.72,13.51,13.51,0,0,0-.09,1.91Z"/><path class="cls-1" d="M84.66,42.68V41.23h1.27v1.45Zm0,6.73V43.49h1.27v5.93Z"/><path class="cls-1" d="M88.18,45.29,87,45a2.28,2.28,0,0,1,.69-1.29,2.15,2.15,0,0,1,1.39-.39,2.64,2.64,0,0,1,1.23.23,1.34,1.34,0,0,1,.61.62,3.84,3.84,0,0,1,.18,1.43v1.83a7.9,7.9,0,0,0,.06,1.15,4,4,0,0,0,.23.8H90.15L90,48.77a2.36,2.36,0,0,1-.7.59,1.66,1.66,0,0,1-.79.2,1.5,1.5,0,0,1-1.15-.48,1.79,1.79,0,0,1-.45-1.27,2,2,0,0,1,.18-.88,1.49,1.49,0,0,1,.51-.6,3.37,3.37,0,0,1,1.06-.4,5.94,5.94,0,0,0,1.23-.39,1.92,1.92,0,0,0-.07-.65.54.54,0,0,0-.25-.25,1.13,1.13,0,0,0-.52-.1.84.84,0,0,0-.54.16A1.13,1.13,0,0,0,88.18,45.29Zm1.7,1.28a6.22,6.22,0,0,1-.76.24,1.75,1.75,0,0,0-.77.35.68.68,0,0,0-.18.49.85.85,0,0,0,.2.57.64.64,0,0,0,.5.23.92.92,0,0,0,.53-.19,1,1,0,0,0,.37-.44,2.89,2.89,0,0,0,.1-.94Z"/><path class="cls-1" d="M92.38,49.42V41.23h1.27v8.18Z"/><path class="cls-1" d="M97.54,49.42V41.23h4.92v1.38H98.88v1.81h3.33v1.38H98.88V48h3.7v1.38Z"/><path class="cls-1" d="M103.26,47.73l1.27-.24a1,1,0,0,0,1,.93,1.09,1.09,0,0,0,.68-.18.56.56,0,0,0,.23-.46.45.45,0,0,0-.1-.31.91.91,0,0,0-.42-.19,5.6,5.6,0,0,1-2-.8,1.66,1.66,0,0,1-.53-1.3,1.75,1.75,0,0,1,.52-1.33,2.09,2.09,0,0,1,1.5-.5,2.35,2.35,0,0,1,1.43.37,2,2,0,0,1,.69,1.2l-1.2.27a.84.84,0,0,0-.9-.71,1.22,1.22,0,0,0-.67.14.42.42,0,0,0-.2.35.38.38,0,0,0,.18.32,5,5,0,0,0,1.13.41,3.08,3.08,0,0,1,1.44.73,1.68,1.68,0,0,1,.38,1.15,1.88,1.88,0,0,1-.58,1.42,2.22,2.22,0,0,1-1.61.56,2.38,2.38,0,0,1-1.52-.47A2.25,2.25,0,0,1,103.26,47.73Z"/><path class="cls-1" d="M111,43.49v1.25h-.87v2.39a5.29,5.29,0,0,0,0,.9.3.3,0,0,0,.31.22,1.36,1.36,0,0,0,.51-.15l.11,1.22a2.09,2.09,0,0,1-1,.23,1.2,1.2,0,0,1-.78-.23,1.16,1.16,0,0,1-.39-.68,7.07,7.07,0,0,1-.08-1.32V44.74h-.58V43.49h.58V42.31l1.27-.92v2.09Z"/><path class="cls-1" d="M112.89,45.29,111.73,45a2.28,2.28,0,0,1,.69-1.29,2.15,2.15,0,0,1,1.39-.39,2.64,2.64,0,0,1,1.23.23,1.34,1.34,0,0,1,.61.62,3.84,3.84,0,0,1,.18,1.43v1.83a7.9,7.9,0,0,0,.06,1.15,4,4,0,0,0,.23.8h-1.26l-.17-.65a2.36,2.36,0,0,1-.7.59,1.66,1.66,0,0,1-.79.2,1.5,1.5,0,0,1-1.15-.48,1.79,1.79,0,0,1-.45-1.27,2,2,0,0,1,.18-.88,1.49,1.49,0,0,1,.51-.6,3.37,3.37,0,0,1,1.06-.4,5.94,5.94,0,0,0,1.23-.39,1.92,1.92,0,0,0-.07-.65.54.54,0,0,0-.25-.25,1.13,1.13,0,0,0-.52-.1.84.84,0,0,0-.54.16A1.13,1.13,0,0,0,112.89,45.29Zm1.7,1.28a6.22,6.22,0,0,1-.76.24,1.75,1.75,0,0,0-.77.35.68.68,0,0,0-.18.49.85.85,0,0,0,.2.57.64.64,0,0,0,.5.23.92.92,0,0,0,.53-.19,1,1,0,0,0,.37-.44,2.89,2.89,0,0,0,.1-.94Z"/><path class="cls-1" d="M119.28,43.49v1.25h-.87v2.39a5.29,5.29,0,0,0,0,.9.3.3,0,0,0,.31.22,1.36,1.36,0,0,0,.51-.15l.11,1.22a2.09,2.09,0,0,1-1,.23,1.2,1.2,0,0,1-.78-.23,1.16,1.16,0,0,1-.39-.68,7.07,7.07,0,0,1-.08-1.32V44.74h-.58V43.49h.58V42.31l1.27-.92v2.09Z"/><path class="cls-1" d="M123,47.54l1.26.26a2.54,2.54,0,0,1-.79,1.33,2.21,2.21,0,0,1-2.95-.29,3.62,3.62,0,0,1-.68-2.35,3.8,3.8,0,0,1,.69-2.38,1.82,1.82,0,0,1,1.51-.75,1.91,1.91,0,0,1,1.62.77,4.26,4.26,0,0,1,.67,2.61v.18H121.1a1.79,1.79,0,0,0,.31,1.09.9.9,0,0,0,.73.39Q122.75,48.38,123,47.54Zm.07-1.59a1.74,1.74,0,0,0-.29-1,.82.82,0,0,0-.66-.35.82.82,0,0,0-.68.36,1.65,1.65,0,0,0-.28,1Z"/><path class="cls-1" d="M125.28,47.85h1.27V49a3.46,3.46,0,0,1-.22,1.42,1.72,1.72,0,0,1-.9.85l-.25-.65a1.11,1.11,0,0,0,.54-.42,1.5,1.5,0,0,0,.18-.76h-.61Z"/><path class="cls-1" d="M130.47,41.23h2.65a4.06,4.06,0,0,1,1.53.2,1.7,1.7,0,0,1,.75.71,2.33,2.33,0,0,1,0,2.22,1.71,1.71,0,0,1-.68.71,1.79,1.79,0,0,1,.92.73A2.25,2.25,0,0,1,136,47a2.6,2.6,0,0,1-.42,1.51,1.75,1.75,0,0,1-1,.76,10.26,10.26,0,0,1-1.87.1h-2.25Zm1.33,1.36v1.89h.88a9.68,9.68,0,0,0,1,0,.83.83,0,0,0,.53-.29,1,1,0,0,0,.19-.65,1,1,0,0,0-.16-.59.66.66,0,0,0-.38-.28,8,8,0,0,0-1.28-.06Zm0,3.25V48H133a3.84,3.84,0,0,0,1-.09.78.78,0,0,0,.39-.34,1.38,1.38,0,0,0,0-1.3.86.86,0,0,0-.45-.36,4.21,4.21,0,0,0-1.14-.1Z"/><path class="cls-1" d="M138.41,41.23v3a2.2,2.2,0,0,1,.67-.67,1.52,1.52,0,0,1,.8-.22,1.49,1.49,0,0,1,1,.31,1.68,1.68,0,0,1,.55.87,5.63,5.63,0,0,1,.12,1.41v3.48h-1.27V46.28a4,4,0,0,0-.14-1.36.68.68,0,0,0-.65-.37.87.87,0,0,0-.76.4,2.87,2.87,0,0,0-.27,1.5v3h-1.27V41.23Z"/><path class="cls-1" d="M142.8,42.68V41.23h1.27v1.45Zm0,6.73V43.49h1.27v5.93Z"/><path class="cls-1" d="M145.28,43.49h1.17v.81a2.38,2.38,0,0,1,.69-.71,1.49,1.49,0,0,1,.81-.24,1.38,1.38,0,0,1,.8.23,1.67,1.67,0,0,1,.55.71,2.44,2.44,0,0,1,.69-.71,1.42,1.42,0,0,1,.78-.23,1.42,1.42,0,0,1,1.39.92,3.73,3.73,0,0,1,.18,1.36v3.79h-1.27V46a3,3,0,0,0-.15-1.18.54.54,0,0,0-.52-.29.78.78,0,0,0-.68.41,3.35,3.35,0,0,0-.26,1.61v2.85h-1.27V46.16a4.51,4.51,0,0,0-.1-1.25.54.54,0,0,0-.56-.37.81.81,0,0,0-.52.19,1.06,1.06,0,0,0-.34.56,5.06,5.06,0,0,0-.1,1.24v2.88h-1.27Z"/><path class="cls-1" d="M153.57,43.49h1.18v.87a2,2,0,0,1,.64-.74,1.49,1.49,0,0,1,.86-.27,1.73,1.73,0,0,1,1.42.79,3.71,3.71,0,0,1,.59,2.25,3.93,3.93,0,0,1-.6,2.35,1.73,1.73,0,0,1-1.42.81,1.41,1.41,0,0,1-.71-.19,2.43,2.43,0,0,1-.69-.68v3h-1.27Zm1.26,2.86a2.7,2.7,0,0,0,.32,1.48.93.93,0,0,0,.78.48.87.87,0,0,0,.73-.44,2.64,2.64,0,0,0,.3-1.44,2.53,2.53,0,0,0-.31-1.4.89.89,0,0,0-.75-.45.91.91,0,0,0-.77.44A2.31,2.31,0,0,0,154.82,46.35Z"/><path class="cls-1" d="M159,46.37a3.64,3.64,0,0,1,.34-1.59,2.55,2.55,0,0,1,.89-1.07,2.23,2.23,0,0,1,1.24-.36,2.12,2.12,0,0,1,1.82.92,3.59,3.59,0,0,1,.66,2.15,3.87,3.87,0,0,1-.34,1.66,2.61,2.61,0,0,1-.9,1.11,2.17,2.17,0,0,1-1.23.37,2.24,2.24,0,0,1-1.78-.83A3.54,3.54,0,0,1,159,46.37Zm1.3.08a2.24,2.24,0,0,0,.35,1.36,1,1,0,0,0,.84.46,1,1,0,0,0,.82-.46,2.3,2.3,0,0,0,.34-1.37,2.22,2.22,0,0,0-.35-1.35,1,1,0,0,0-.83-.46,1,1,0,0,0-.83.46A2.26,2.26,0,0,0,160.27,46.45Z"/><path class="cls-1" d="M166.14,49.42h-1.27V43.49H166v.84a2.58,2.58,0,0,1,.54-.79.85.85,0,0,1,.55-.2,1.37,1.37,0,0,1,.83.3l-.4,1.37a1,1,0,0,0-.6-.26.64.64,0,0,0-.47.2,1.33,1.33,0,0,0-.29.72,13.51,13.51,0,0,0-.09,1.91Z"/><path class="cls-1" d="M171.31,47.54l1.26.26a2.54,2.54,0,0,1-.79,1.33,2.21,2.21,0,0,1-2.95-.29,3.62,3.62,0,0,1-.68-2.35,3.8,3.8,0,0,1,.69-2.38,1.82,1.82,0,0,1,1.51-.75,1.91,1.91,0,0,1,1.62.77,4.26,4.26,0,0,1,.67,2.61v.18h-3.18a1.79,1.79,0,0,0,.31,1.09.9.9,0,0,0,.73.39Q171.1,48.38,171.31,47.54Zm.07-1.59a1.74,1.74,0,0,0-.29-1,.82.82,0,0,0-.66-.35.82.82,0,0,0-.68.36,1.65,1.65,0,0,0-.28,1Z"/><path class="cls-1" d="M173.63,47.85h1.27V49a3.46,3.46,0,0,1-.22,1.42,1.72,1.72,0,0,1-.9.85l-.25-.65a1.11,1.11,0,0,0,.54-.42,1.5,1.5,0,0,0,.18-.76h-.61Z"/><path class="cls-1" d="M178.84,49.42V41.23h1.3l2.71,5.46V41.23h1.25v8.18h-1.35l-2.67-5.34v5.34Z"/><path class="cls-1" d="M186.44,45.29,185.29,45a2.28,2.28,0,0,1,.69-1.29,2.15,2.15,0,0,1,1.39-.39,2.64,2.64,0,0,1,1.23.23,1.34,1.34,0,0,1,.61.62,3.84,3.84,0,0,1,.18,1.43v1.83a7.9,7.9,0,0,0,.06,1.15,4,4,0,0,0,.23.8h-1.26l-.17-.65a2.36,2.36,0,0,1-.7.59,1.66,1.66,0,0,1-.79.2,1.5,1.5,0,0,1-1.15-.48,1.79,1.79,0,0,1-.45-1.27,2,2,0,0,1,.18-.88,1.49,1.49,0,0,1,.51-.6,3.37,3.37,0,0,1,1.06-.4,5.94,5.94,0,0,0,1.23-.39,1.92,1.92,0,0,0-.07-.65.54.54,0,0,0-.25-.25,1.13,1.13,0,0,0-.52-.1.84.84,0,0,0-.54.16A1.13,1.13,0,0,0,186.44,45.29Zm1.7,1.28a6.22,6.22,0,0,1-.76.24,1.75,1.75,0,0,0-.77.35.68.68,0,0,0-.18.49.85.85,0,0,0,.2.57.64.64,0,0,0,.5.23.92.92,0,0,0,.53-.19,1,1,0,0,0,.37-.44,2.89,2.89,0,0,0,.1-.94Z"/><path class="cls-1" d="M195,49.42h-1.27v-3a6.45,6.45,0,0,0-.07-1.21.83.83,0,0,0-.27-.46.68.68,0,0,0-.44-.16.9.9,0,0,0-.58.21,1.11,1.11,0,0,0-.36.58,6,6,0,0,0-.1,1.39v2.69h-1.27V43.49h1.18v.87a2.34,2.34,0,0,1,.71-.75,1.59,1.59,0,0,1,.87-.25,1.48,1.48,0,0,1,1.47,1,4.65,4.65,0,0,1,.15,1.33Z"/><path class="cls-1" d="M196.3,42.68V41.23h1.27v1.45Zm0,6.73V43.49h1.27v5.93Z"/><path class="cls-1" d="M201.45,41.23h2.44a3.59,3.59,0,0,1,1.4.21,2.35,2.35,0,0,1,.87.71,3.64,3.64,0,0,1,.62,1.29,7.31,7.31,0,0,1,.23,2,6.44,6.44,0,0,1-.24,1.84,3.73,3.73,0,0,1-.6,1.24,2.34,2.34,0,0,1-.88.69,3.25,3.25,0,0,1-1.32.23h-2.51Zm1.33,1.38V48h1a2.59,2.59,0,0,0,.93-.12,1.13,1.13,0,0,0,.47-.37,2.15,2.15,0,0,0,.31-.78,6.6,6.6,0,0,0,.12-1.41,6.49,6.49,0,0,0-.12-1.43,1.91,1.91,0,0,0-.39-.83,1.22,1.22,0,0,0-.64-.4,5.22,5.22,0,0,0-1.09-.07Z"/><path class="cls-1" d="M209.08,45.29,207.93,45a2.27,2.27,0,0,1,.69-1.29,2.14,2.14,0,0,1,1.39-.39,2.64,2.64,0,0,1,1.23.23,1.34,1.34,0,0,1,.61.62,3.85,3.85,0,0,1,.18,1.43v1.83a8,8,0,0,0,.06,1.15,3.92,3.92,0,0,0,.23.8H211l-.17-.65a2.36,2.36,0,0,1-.7.59,1.66,1.66,0,0,1-.79.2,1.5,1.5,0,0,1-1.15-.48,1.79,1.79,0,0,1-.45-1.27,2,2,0,0,1,.18-.88,1.49,1.49,0,0,1,.51-.6,3.38,3.38,0,0,1,1.06-.4,6,6,0,0,0,1.23-.39,1.91,1.91,0,0,0-.07-.65.54.54,0,0,0-.25-.25,1.13,1.13,0,0,0-.52-.1.84.84,0,0,0-.54.16A1.13,1.13,0,0,0,209.08,45.29Zm1.7,1.28a6.26,6.26,0,0,1-.76.24,1.75,1.75,0,0,0-.77.35.68.68,0,0,0-.18.49.84.84,0,0,0,.2.57.64.64,0,0,0,.5.23.92.92,0,0,0,.54-.19,1,1,0,0,0,.37-.44,2.88,2.88,0,0,0,.1-.94Z"/><path class="cls-1" d="M213.18,43.49h1.17v.81a2.38,2.38,0,0,1,.69-.71,1.49,1.49,0,0,1,.81-.24,1.38,1.38,0,0,1,.8.23,1.68,1.68,0,0,1,.55.71,2.44,2.44,0,0,1,.69-.71,1.42,1.42,0,0,1,.78-.23,1.42,1.42,0,0,1,1.39.92,3.73,3.73,0,0,1,.18,1.36v3.79H219V46a2.93,2.93,0,0,0-.15-1.18.54.54,0,0,0-.52-.29.78.78,0,0,0-.68.41,3.35,3.35,0,0,0-.26,1.61v2.85h-1.27V46.16a4.47,4.47,0,0,0-.11-1.25.54.54,0,0,0-.56-.37.81.81,0,0,0-.52.19,1.06,1.06,0,0,0-.34.56,5,5,0,0,0-.11,1.24v2.88h-1.27Z"/><path class="cls-1" d="M222.46,45.29,221.31,45a2.27,2.27,0,0,1,.69-1.29,2.14,2.14,0,0,1,1.39-.39,2.64,2.64,0,0,1,1.23.23,1.34,1.34,0,0,1,.61.62,3.85,3.85,0,0,1,.18,1.43v1.83a8,8,0,0,0,.06,1.15,3.92,3.92,0,0,0,.23.8h-1.26l-.17-.65a2.36,2.36,0,0,1-.7.59,1.66,1.66,0,0,1-.79.2,1.5,1.5,0,0,1-1.15-.48,1.79,1.79,0,0,1-.45-1.27,2,2,0,0,1,.18-.88,1.49,1.49,0,0,1,.51-.6,3.38,3.38,0,0,1,1.06-.4,6,6,0,0,0,1.23-.39,1.91,1.91,0,0,0-.07-.65.54.54,0,0,0-.25-.25,1.13,1.13,0,0,0-.52-.1.84.84,0,0,0-.54.16A1.13,1.13,0,0,0,222.46,45.29Zm1.7,1.28a6.26,6.26,0,0,1-.76.24,1.75,1.75,0,0,0-.77.35.68.68,0,0,0-.18.49.84.84,0,0,0,.2.57.64.64,0,0,0,.5.23.92.92,0,0,0,.54-.19,1,1,0,0,0,.37-.44,2.88,2.88,0,0,0,.1-.94Z"/><path class="cls-1" d="M231,49.42h-1.27v-3a6.43,6.43,0,0,0-.07-1.21.83.83,0,0,0-.27-.46.68.68,0,0,0-.44-.16.89.89,0,0,0-.58.21,1.11,1.11,0,0,0-.36.58,6,6,0,0,0-.1,1.39v2.69h-1.27V43.49h1.18v.87a2.34,2.34,0,0,1,.71-.75,1.59,1.59,0,0,1,.87-.25,1.48,1.48,0,0,1,1.47,1,4.65,4.65,0,0,1,.15,1.33Z"/><path class="cls-1" d="M232.28,47.85h1.27V49a3.47,3.47,0,0,1-.22,1.42,1.72,1.72,0,0,1-.9.85l-.25-.65a1.11,1.11,0,0,0,.54-.42,1.5,1.5,0,0,0,.18-.76h-.61Z"/><path class="cls-1" d="M237.46,41.23h2.44a3.59,3.59,0,0,1,1.4.21,2.35,2.35,0,0,1,.87.71,3.64,3.64,0,0,1,.62,1.29,7.31,7.31,0,0,1,.23,2,6.44,6.44,0,0,1-.24,1.84,3.73,3.73,0,0,1-.6,1.24,2.34,2.34,0,0,1-.88.69,3.25,3.25,0,0,1-1.32.23h-2.51Zm1.33,1.38V48h1a2.59,2.59,0,0,0,.93-.12,1.13,1.13,0,0,0,.47-.37,2.15,2.15,0,0,0,.31-.78,6.6,6.6,0,0,0,.12-1.41,6.49,6.49,0,0,0-.12-1.43,1.91,1.91,0,0,0-.39-.83,1.22,1.22,0,0,0-.64-.4,5.22,5.22,0,0,0-1.09-.07Z"/><path class="cls-1" d="M245.09,45.29,243.94,45a2.27,2.27,0,0,1,.69-1.29,2.14,2.14,0,0,1,1.39-.39,2.64,2.64,0,0,1,1.23.23,1.34,1.34,0,0,1,.61.62,3.85,3.85,0,0,1,.18,1.43v1.83a8,8,0,0,0,.06,1.15,3.92,3.92,0,0,0,.23.8h-1.26l-.17-.65a2.36,2.36,0,0,1-.7.59,1.66,1.66,0,0,1-.79.2,1.5,1.5,0,0,1-1.15-.48,1.79,1.79,0,0,1-.45-1.27,2,2,0,0,1,.18-.88,1.49,1.49,0,0,1,.51-.6,3.38,3.38,0,0,1,1.06-.4,6,6,0,0,0,1.23-.39,1.91,1.91,0,0,0-.07-.65.54.54,0,0,0-.25-.25,1.13,1.13,0,0,0-.52-.1.84.84,0,0,0-.54.16A1.13,1.13,0,0,0,245.09,45.29Zm1.7,1.28a6.26,6.26,0,0,1-.76.24,1.75,1.75,0,0,0-.77.35.68.68,0,0,0-.18.49.84.84,0,0,0,.2.57.64.64,0,0,0,.5.23.92.92,0,0,0,.54-.19,1,1,0,0,0,.37-.44,2.88,2.88,0,0,0,.1-.94Z"/><path class="cls-1" d="M253.69,49.42h-1.18v-.87a2.17,2.17,0,0,1-.69.76,1.5,1.5,0,0,1-.82.25,1.72,1.72,0,0,1-1.4-.81,3.88,3.88,0,0,1-.6-2.32,3.79,3.79,0,0,1,.58-2.3,1.74,1.74,0,0,1,1.44-.77,1.45,1.45,0,0,1,.75.21,2.13,2.13,0,0,1,.64.62V41.23h1.27Zm-3.38-3.09a4,4,0,0,0,.13,1.2,1.25,1.25,0,0,0,.38.59.84.84,0,0,0,1.29-.26,2.5,2.5,0,0,0,.31-1.38,2.76,2.76,0,0,0-.3-1.48.86.86,0,0,0-1.51,0A2.34,2.34,0,0,0,250.31,46.32Z"/><path class="cls-1" d="M256.17,49.42h-1.27V43.49h1.18v.84a2.55,2.55,0,0,1,.54-.79.85.85,0,0,1,.55-.2,1.37,1.37,0,0,1,.83.3l-.4,1.37a1,1,0,0,0-.6-.26.65.65,0,0,0-.47.2,1.33,1.33,0,0,0-.29.72,13.61,13.61,0,0,0-.09,1.91Z"/><path class="cls-1" d="M259.5,45.29,258.34,45a2.27,2.27,0,0,1,.69-1.29,2.14,2.14,0,0,1,1.39-.39,2.64,2.64,0,0,1,1.23.23,1.34,1.34,0,0,1,.61.62,3.85,3.85,0,0,1,.18,1.43v1.83a8,8,0,0,0,.06,1.15,3.92,3.92,0,0,0,.23.8h-1.26l-.17-.65a2.36,2.36,0,0,1-.7.59,1.66,1.66,0,0,1-.79.2,1.5,1.5,0,0,1-1.15-.48,1.79,1.79,0,0,1-.45-1.27,2,2,0,0,1,.18-.88,1.49,1.49,0,0,1,.51-.6,3.38,3.38,0,0,1,1.06-.4,6,6,0,0,0,1.23-.39,1.91,1.91,0,0,0-.07-.65.54.54,0,0,0-.25-.25,1.13,1.13,0,0,0-.52-.1.84.84,0,0,0-.54.16A1.13,1.13,0,0,0,259.5,45.29Zm1.7,1.28a6.26,6.26,0,0,1-.76.24,1.75,1.75,0,0,0-.77.35.68.68,0,0,0-.18.49.84.84,0,0,0,.2.57.64.64,0,0,0,.5.23.92.92,0,0,0,.54-.19,1,1,0,0,0,.37-.44,2.88,2.88,0,0,0,.1-.94Z"/><path class="cls-1" d="M267.22,45.29,266.07,45a2.27,2.27,0,0,1,.69-1.29,2.14,2.14,0,0,1,1.39-.39,2.64,2.64,0,0,1,1.23.23,1.34,1.34,0,0,1,.61.62,3.85,3.85,0,0,1,.18,1.43v1.83a8,8,0,0,0,.06,1.15,3.92,3.92,0,0,0,.23.8h-1.26l-.17-.65a2.36,2.36,0,0,1-.7.59,1.66,1.66,0,0,1-.79.2,1.5,1.5,0,0,1-1.15-.48,1.79,1.79,0,0,1-.45-1.27,2,2,0,0,1,.18-.88,1.49,1.49,0,0,1,.51-.6,3.38,3.38,0,0,1,1.06-.4,6,6,0,0,0,1.23-.39,1.91,1.91,0,0,0-.07-.65.54.54,0,0,0-.25-.25,1.13,1.13,0,0,0-.52-.1.84.84,0,0,0-.54.16A1.13,1.13,0,0,0,267.22,45.29Zm1.7,1.28a6.26,6.26,0,0,1-.76.24,1.75,1.75,0,0,0-.77.35.68.68,0,0,0-.18.49.84.84,0,0,0,.2.57.64.64,0,0,0,.5.23.92.92,0,0,0,.54-.19,1,1,0,0,0,.37-.44,2.88,2.88,0,0,0,.1-.94Z"/><path class="cls-1" d="M275.79,49.42h-1.27v-3a6.43,6.43,0,0,0-.07-1.21.83.83,0,0,0-.27-.46.68.68,0,0,0-.44-.16.89.89,0,0,0-.58.21,1.11,1.11,0,0,0-.36.58,6,6,0,0,0-.1,1.39v2.69h-1.27V43.49h1.18v.87a2.34,2.34,0,0,1,.71-.75,1.59,1.59,0,0,1,.87-.25,1.48,1.48,0,0,1,1.47,1,4.65,4.65,0,0,1,.15,1.33Z"/><path class="cls-1" d="M281.48,49.42H280.3v-.87a2.17,2.17,0,0,1-.69.76,1.5,1.5,0,0,1-.82.25,1.72,1.72,0,0,1-1.4-.81,3.88,3.88,0,0,1-.6-2.32,3.79,3.79,0,0,1,.58-2.3,1.74,1.74,0,0,1,1.44-.77,1.45,1.45,0,0,1,.75.21,2.13,2.13,0,0,1,.64.62V41.23h1.27Zm-3.38-3.09a4,4,0,0,0,.13,1.2,1.25,1.25,0,0,0,.38.59.84.84,0,0,0,1.29-.26,2.5,2.5,0,0,0,.31-1.38,2.76,2.76,0,0,0-.3-1.48.86.86,0,0,0-1.51,0A2.34,2.34,0,0,0,278.09,46.32Z"/><path class="cls-1" d="M285.33,49.42V41.23h1.3l2.71,5.46V41.23h1.25v8.18h-1.35l-2.67-5.34v5.34Z"/><path class="cls-1" d="M292.94,45.29,291.78,45a2.27,2.27,0,0,1,.69-1.29,2.14,2.14,0,0,1,1.39-.39,2.64,2.64,0,0,1,1.23.23,1.34,1.34,0,0,1,.61.62,3.85,3.85,0,0,1,.18,1.43v1.83a8,8,0,0,0,.06,1.15,3.92,3.92,0,0,0,.23.8H294.9l-.17-.65a2.36,2.36,0,0,1-.7.59,1.66,1.66,0,0,1-.79.2,1.5,1.5,0,0,1-1.15-.48,1.79,1.79,0,0,1-.45-1.27,2,2,0,0,1,.18-.88,1.49,1.49,0,0,1,.51-.6,3.38,3.38,0,0,1,1.06-.4,6,6,0,0,0,1.23-.39,1.91,1.91,0,0,0-.07-.65.54.54,0,0,0-.25-.25,1.13,1.13,0,0,0-.52-.1.84.84,0,0,0-.54.16A1.13,1.13,0,0,0,292.94,45.29Zm1.7,1.28a6.26,6.26,0,0,1-.76.24,1.75,1.75,0,0,0-.77.35.68.68,0,0,0-.18.49.84.84,0,0,0,.2.57.64.64,0,0,0,.5.23.92.92,0,0,0,.54-.19,1,1,0,0,0,.37-.44,2.88,2.88,0,0,0,.1-.94Z"/><path class="cls-1" d="M297,49.81l1.46.22a.65.65,0,0,0,.2.46.84.84,0,0,0,.53.14,1.43,1.43,0,0,0,.68-.14.66.66,0,0,0,.28-.33,2.36,2.36,0,0,0,.1-.83v-.87a2.2,2.2,0,0,1-.65.72,1.39,1.39,0,0,1-.79.24,1.63,1.63,0,0,1-1.34-.73,3.7,3.7,0,0,1-.63-2.27,3.74,3.74,0,0,1,.59-2.29,1.76,1.76,0,0,1,1.44-.77,1.44,1.44,0,0,1,.81.24,2.17,2.17,0,0,1,.65.73v-.83h1.19v5.32a5.37,5.37,0,0,1-.23,1.85,1.75,1.75,0,0,1-.71.87,2.58,2.58,0,0,1-1.34.29,3.13,3.13,0,0,1-1.26-.21,1.56,1.56,0,0,1-.72-.63,1.86,1.86,0,0,1-.25-1Zm1.14-3.48a2.5,2.5,0,0,0,.3,1.39.87.87,0,0,0,.73.44,1,1,0,0,0,.78-.44,2.26,2.26,0,0,0,.33-1.34A2.41,2.41,0,0,0,300,45a.92.92,0,0,0-.77-.44.89.89,0,0,0-.75.44A2.39,2.39,0,0,0,298.15,46.33Z"/><path class="cls-1" d="M303.74,45.29,302.59,45a2.27,2.27,0,0,1,.69-1.29,2.14,2.14,0,0,1,1.39-.39,2.64,2.64,0,0,1,1.23.23,1.34,1.34,0,0,1,.61.62,3.85,3.85,0,0,1,.18,1.43v1.83a8,8,0,0,0,.06,1.15,3.92,3.92,0,0,0,.23.8H305.7l-.17-.65a2.36,2.36,0,0,1-.7.59,1.66,1.66,0,0,1-.79.2,1.5,1.5,0,0,1-1.15-.48,1.79,1.79,0,0,1-.45-1.27,2,2,0,0,1,.18-.88,1.49,1.49,0,0,1,.51-.6,3.38,3.38,0,0,1,1.06-.4,6,6,0,0,0,1.23-.39,1.91,1.91,0,0,0-.07-.65.54.54,0,0,0-.25-.25,1.13,1.13,0,0,0-.52-.1.84.84,0,0,0-.54.16A1.13,1.13,0,0,0,303.74,45.29Zm1.7,1.28a6.26,6.26,0,0,1-.76.24,1.75,1.75,0,0,0-.77.35.68.68,0,0,0-.18.49.84.84,0,0,0,.2.57.64.64,0,0,0,.5.23.92.92,0,0,0,.54-.19,1,1,0,0,0,.37-.44,2.88,2.88,0,0,0,.1-.94Z"/><path class="cls-1" d="M309.16,49.42h-1.27V43.49h1.18v.84a2.55,2.55,0,0,1,.54-.79.85.85,0,0,1,.55-.2,1.37,1.37,0,0,1,.83.3L310.6,45a1,1,0,0,0-.6-.26.65.65,0,0,0-.47.2,1.33,1.33,0,0,0-.29.72,13.61,13.61,0,0,0-.09,1.91Z"/><path class="cls-1" d="M314.13,49.42V41.23h1.33v3.22h2.63V41.23h1.33v8.18h-1.33V45.84h-2.63v3.58Z"/><path class="cls-1" d="M321.74,45.29,320.59,45a2.27,2.27,0,0,1,.69-1.29,2.14,2.14,0,0,1,1.39-.39,2.64,2.64,0,0,1,1.23.23,1.34,1.34,0,0,1,.61.62,3.85,3.85,0,0,1,.18,1.43v1.83a8,8,0,0,0,.06,1.15,3.92,3.92,0,0,0,.23.8h-1.26l-.17-.65a2.36,2.36,0,0,1-.7.59,1.66,1.66,0,0,1-.79.2,1.5,1.5,0,0,1-1.15-.48,1.79,1.79,0,0,1-.45-1.27,2,2,0,0,1,.18-.88,1.49,1.49,0,0,1,.51-.6,3.38,3.38,0,0,1,1.06-.4,6,6,0,0,0,1.23-.39,1.91,1.91,0,0,0-.07-.65.54.54,0,0,0-.25-.25,1.13,1.13,0,0,0-.52-.1.84.84,0,0,0-.54.16A1.13,1.13,0,0,0,321.74,45.29Zm1.7,1.28a6.26,6.26,0,0,1-.76.24,1.75,1.75,0,0,0-.77.35.68.68,0,0,0-.18.49.84.84,0,0,0,.2.57.64.64,0,0,0,.5.23.92.92,0,0,0,.54-.19,1,1,0,0,0,.37-.44,2.88,2.88,0,0,0,.1-.94Z"/><path class="cls-1" d="M327.27,49.42l-1.95-5.93h1.33l.91,3,.26,1,.27-1,.92-3h1.3l-1.91,5.93Z"/><path class="cls-1" d="M333.88,47.54l1.26.26a2.54,2.54,0,0,1-.79,1.33,2.21,2.21,0,0,1-2.95-.29,3.61,3.61,0,0,1-.68-2.35,3.81,3.81,0,0,1,.69-2.38,1.83,1.83,0,0,1,1.51-.75,1.91,1.91,0,0,1,1.62.77,4.26,4.26,0,0,1,.67,2.61v.18H332a1.78,1.78,0,0,0,.31,1.09.9.9,0,0,0,.73.39Q333.68,48.38,333.88,47.54Zm.07-1.59a1.74,1.74,0,0,0-.29-1,.81.81,0,0,0-.66-.35.82.82,0,0,0-.68.36,1.65,1.65,0,0,0-.28,1Z"/><path class="cls-1" d="M336.24,49.42V41.23h1.27v8.18Z"/><path class="cls-1" d="M338.82,42.68V41.23h1.27v1.45Zm0,6.73V43.49h1.27v5.93Z"/><path class="cls-1" d="M341.36,47.85h1.27V49a3.47,3.47,0,0,1-.22,1.42,1.72,1.72,0,0,1-.9.85l-.25-.65a1.11,1.11,0,0,0,.54-.42,1.5,1.5,0,0,0,.18-.76h-.61Z"/><path class="cls-1" d="M346.54,41.23H349a3.59,3.59,0,0,1,1.4.21,2.35,2.35,0,0,1,.87.71,3.64,3.64,0,0,1,.62,1.29,7.31,7.31,0,0,1,.23,2,6.44,6.44,0,0,1-.24,1.84,3.73,3.73,0,0,1-.6,1.24,2.34,2.34,0,0,1-.88.69,3.25,3.25,0,0,1-1.32.23h-2.51Zm1.33,1.38V48h1a2.59,2.59,0,0,0,.93-.12,1.13,1.13,0,0,0,.47-.37,2.15,2.15,0,0,0,.31-.78,6.6,6.6,0,0,0,.12-1.41,6.49,6.49,0,0,0-.12-1.43,1.91,1.91,0,0,0-.39-.83,1.22,1.22,0,0,0-.64-.4,5.22,5.22,0,0,0-1.09-.07Z"/><path class="cls-1" d="M354.17,45.29,353,45a2.27,2.27,0,0,1,.69-1.29,2.14,2.14,0,0,1,1.39-.39,2.64,2.64,0,0,1,1.23.23,1.34,1.34,0,0,1,.61.62,3.85,3.85,0,0,1,.18,1.43v1.83a8,8,0,0,0,.06,1.15,3.92,3.92,0,0,0,.23.8h-1.26l-.17-.65a2.36,2.36,0,0,1-.7.59,1.66,1.66,0,0,1-.79.2,1.5,1.5,0,0,1-1.15-.48,1.79,1.79,0,0,1-.45-1.27,2,2,0,0,1,.18-.88,1.49,1.49,0,0,1,.51-.6,3.38,3.38,0,0,1,1.06-.4,6,6,0,0,0,1.23-.39,1.91,1.91,0,0,0-.07-.65.54.54,0,0,0-.25-.25,1.13,1.13,0,0,0-.52-.1.84.84,0,0,0-.54.16A1.13,1.13,0,0,0,354.17,45.29Zm1.7,1.28a6.26,6.26,0,0,1-.76.24,1.75,1.75,0,0,0-.77.35.68.68,0,0,0-.18.49.84.84,0,0,0,.2.57.64.64,0,0,0,.5.23.92.92,0,0,0,.54-.19,1,1,0,0,0,.37-.44,2.88,2.88,0,0,0,.1-.94Z"/><path class="cls-1" d="M358.27,43.49h1.17v.81a2.38,2.38,0,0,1,.69-.71,1.49,1.49,0,0,1,.81-.24,1.38,1.38,0,0,1,.8.23,1.68,1.68,0,0,1,.55.71,2.44,2.44,0,0,1,.69-.71,1.42,1.42,0,0,1,.78-.23,1.42,1.42,0,0,1,1.39.92,3.73,3.73,0,0,1,.18,1.36v3.79h-1.27V46a2.93,2.93,0,0,0-.15-1.18.54.54,0,0,0-.52-.29.78.78,0,0,0-.68.41,3.35,3.35,0,0,0-.26,1.61v2.85h-1.27V46.16a4.47,4.47,0,0,0-.11-1.25.54.54,0,0,0-.56-.37.81.81,0,0,0-.52.19,1.06,1.06,0,0,0-.34.56,5,5,0,0,0-.11,1.24v2.88h-1.27Z"/><path class="cls-1" d="M367.55,45.29,366.4,45a2.27,2.27,0,0,1,.69-1.29,2.14,2.14,0,0,1,1.39-.39,2.64,2.64,0,0,1,1.23.23,1.34,1.34,0,0,1,.61.62,3.85,3.85,0,0,1,.18,1.43v1.83a8,8,0,0,0,.06,1.15,3.92,3.92,0,0,0,.23.8h-1.26l-.17-.65a2.36,2.36,0,0,1-.7.59,1.66,1.66,0,0,1-.79.2,1.5,1.5,0,0,1-1.15-.48,1.79,1.79,0,0,1-.45-1.27,2,2,0,0,1,.18-.88,1.49,1.49,0,0,1,.51-.6,3.38,3.38,0,0,1,1.06-.4,6,6,0,0,0,1.23-.39,1.91,1.91,0,0,0-.07-.65.54.54,0,0,0-.25-.25,1.13,1.13,0,0,0-.52-.1.84.84,0,0,0-.54.16A1.13,1.13,0,0,0,367.55,45.29Zm1.7,1.28a6.26,6.26,0,0,1-.76.24,1.75,1.75,0,0,0-.77.35.68.68,0,0,0-.18.49.84.84,0,0,0,.2.57.64.64,0,0,0,.5.23.92.92,0,0,0,.54-.19,1,1,0,0,0,.37-.44,2.88,2.88,0,0,0,.1-.94Z"/><path class="cls-1" d="M376.11,49.42h-1.27v-3a6.43,6.43,0,0,0-.07-1.21.83.83,0,0,0-.27-.46.68.68,0,0,0-.44-.16.89.89,0,0,0-.58.21,1.11,1.11,0,0,0-.36.58,6,6,0,0,0-.1,1.39v2.69h-1.27V43.49h1.18v.87a2.34,2.34,0,0,1,.71-.75,1.59,1.59,0,0,1,.87-.25,1.48,1.48,0,0,1,1.47,1,4.65,4.65,0,0,1,.15,1.33Z"/><path class="cls-1" d="M379.29,47V45.87h5.15V47Z"/><path class="cls-1" d="M387.38,47.25l1.23-.18a1.52,1.52,0,0,0,.32.88.79.79,0,0,0,1.29-.06,1.65,1.65,0,0,0,.27-1,1.51,1.51,0,0,0-.26-.94.77.77,0,0,0-.63-.34,1.82,1.82,0,0,0-.58.12l.14-1.28a1,1,0,0,0,1.06-1.05,1,1,0,0,0-.21-.66.66.66,0,0,0-.53-.24.71.71,0,0,0-.56.28,1.41,1.41,0,0,0-.28.82l-1.17-.25a2.83,2.83,0,0,1,.71-1.63,1.85,1.85,0,0,1,1.34-.51,1.76,1.76,0,0,1,1.44.65,2.23,2.23,0,0,1,.53,1.44,1.94,1.94,0,0,1-.24,1,2.22,2.22,0,0,1-.72.75,1.57,1.57,0,0,1,.91.66,2.23,2.23,0,0,1,.35,1.28,2.67,2.67,0,0,1-.66,1.86,2,2,0,0,1-1.57.73,2,2,0,0,1-1.48-.62A2.68,2.68,0,0,1,387.38,47.25Z"/><path class="cls-1" d="M392.6,47.52l1.23-.17q.09.91.72.91a.8.8,0,0,0,.69-.45,4.63,4.63,0,0,0,.35-1.84,1.71,1.71,0,0,1-.54.51,1.29,1.29,0,0,1-.66.17,1.69,1.69,0,0,1-1.34-.73,3,3,0,0,1-.58-1.94,3.1,3.1,0,0,1,.61-2,1.88,1.88,0,0,1,1.51-.74,1.94,1.94,0,0,1,1.65,1,5.83,5.83,0,0,1,.65,3.17,5.89,5.89,0,0,1-.68,3.24,2.05,2.05,0,0,1-1.76,1,1.66,1.66,0,0,1-1.24-.5A2.65,2.65,0,0,1,392.6,47.52Zm2.88-3.42a2.05,2.05,0,0,0-.29-1.18.8.8,0,0,0-.65-.41.69.69,0,0,0-.59.34,2.8,2.8,0,0,0,0,2.29.72.72,0,0,0,1.25,0A1.78,1.78,0,0,0,395.48,44.1Z"/><path class="cls-1" d="M402,43.24l-1.23.17q-.09-.91-.72-.91a.8.8,0,0,0-.69.46A4.57,4.57,0,0,0,399,44.8a1.71,1.71,0,0,1,.53-.52,1.25,1.25,0,0,1,.65-.17,1.7,1.7,0,0,1,1.36.73,3.62,3.62,0,0,1,0,4,1.9,1.9,0,0,1-1.52.74,1.94,1.94,0,0,1-1.65-1,5.82,5.82,0,0,1-.65-3.17,5.87,5.87,0,0,1,.68-3.24,2,2,0,0,1,1.74-1,1.69,1.69,0,0,1,1.24.5A2.58,2.58,0,0,1,402,43.24Zm-2.88,3.42a2.07,2.07,0,0,0,.28,1.18.8.8,0,0,0,.65.41.7.7,0,0,0,.59-.34,2,2,0,0,0,.23-1.11,2.1,2.1,0,0,0-.25-1.17.72.72,0,0,0-1.25,0A1.79,1.79,0,0,0,399.15,46.66Z"/><path class="cls-1" d="M409.74,48v1.46h-4.45a4.39,4.39,0,0,1,.44-1.57,10,10,0,0,1,1.42-2,10.91,10.91,0,0,0,1-1.31,2,2,0,0,0,.29-1,1.2,1.2,0,0,0-.24-.81.78.78,0,0,0-.62-.27q-.84,0-.91,1.28l-1.26-.16a3,3,0,0,1,.69-1.84,2,2,0,0,1,1.52-.59,1.86,1.86,0,0,1,1.57.69,2.51,2.51,0,0,1,.53,1.57,3.52,3.52,0,0,1-.13,1,4.09,4.09,0,0,1-.42.95,8.53,8.53,0,0,1-.94,1.22q-.61.7-.77.92a2.69,2.69,0,0,0-.26.44Z"/><path class="cls-1" d="M413.85,49.42h-1.27V43.51a4.37,4.37,0,0,1-1.64,1.19V43.27a3.52,3.52,0,0,0,1.1-.78,3,3,0,0,0,.79-1.29h1Z"/><path class="cls-1" d="M417.89,41.21a1.79,1.79,0,0,1,1.56.93,6.4,6.4,0,0,1,.59,3.25,6.39,6.39,0,0,1-.59,3.24,1.77,1.77,0,0,1-3.12,0,6.43,6.43,0,0,1-.59-3.27,6.36,6.36,0,0,1,.59-3.23A1.79,1.79,0,0,1,417.89,41.21Zm0,1.3q-.38,0-.6.5a7.49,7.49,0,0,0-.22,2.38,7.47,7.47,0,0,0,.22,2.37q.22.5.6.5c.25,0,.46-.17.6-.5a7.56,7.56,0,0,0,.22-2.37A7.59,7.59,0,0,0,418.5,43C418.35,42.67,418.15,42.51,417.9,42.51Z"/><polygon class="cls-2" points="267.34 15.19 267.34 17.82 258.67 17.82 258.67 6.79 262 6.79 262 15.19 267.34 15.19"/><polygon class="cls-2" points="285.62 8.72 285.62 11.07 290.89 11.07 290.89 13.16 285.62 13.16 285.62 15.61 291.37 15.61 291.37 17.82 282.29 17.82 282.29 6.79 291.37 6.79 291.37 8.72 285.62 8.72"/><polygon class="cls-2" points="276 8.72 276 11.23 280.21 11.23 280.21 13.16 276 13.16 276 17.82 272.66 17.82 272.66 6.79 280.97 6.79 280.97 8.72 276 8.72"/><rect class="cls-2" x="268.29" y="10.17" width="3.33" height="7.65"/><polygon class="cls-3" points="271.57 6.67 268.24 9.52 268.24 6.67 271.57 6.67"/><rect class="cls-2" x="275.21" y="22.25" width="3.33" height="8.02"/><polygon class="cls-3" points="278.83 18.8 275.5 21.64 275.5 18.8 278.83 18.8"/><polygon class="cls-2" points="261.4 18.73 263.17 25.15 264.91 18.73 268.2 18.73 269.96 25.15 271.62 18.73 274.6 18.73 271.85 30.27 268.44 30.27 266.57 23.21 264.33 30.27 261.06 30.27 258.49 18.73 261.4 18.73"/><polygon class="cls-2" points="290.75 19.02 290.75 30.27 287.41 30.27 283.07 23.97 283.07 30.27 279.74 30.27 279.74 19.02 282.6 19.02 283.07 19.69 287.41 26.2 287.41 19.02 290.75 19.02"/><path class="cls-2" d="M298.39,22h3.15a3.77,3.77,0,0,0-2.43-3,6.54,6.54,0,0,0-5.16.13,3.27,3.27,0,0,0-1.64,1.41,2.53,2.53,0,0,0-.18,1.57,3.42,3.42,0,0,0,2.18,2.58c1.85.71,3.83.84,4.17,2a1.11,1.11,0,0,1-.24,1c-1.06,1.29-2.28.7-3.61-1.25h-3c.25,2.42,1.93,3.54,4.51,3.87a5.15,5.15,0,0,0,1.35,0c2.92-.4,4.41-1.64,4.49-3.7a3.11,3.11,0,0,0-.2-1.27c-1-2.61-4.48-1.85-6-3a1.2,1.2,0,0,1,.25-2.11C296.93,20,298.07,20.81,298.39,22Z"/><line class="cls-4" x1="251.34" y1="6.35" x2="251.34" y2="30.05"/><polygon class="cls-3" points="115.05 14.33 118.37 14.33 115.55 27.11 120.65 22.16 121.72 14.33 124.39 14.33 124.39 18.16 128.08 14.47 129.85 14.47 123.15 21.31 122.59 26.69 133.32 14.33 135.37 14.33 121.38 30.27 118.99 30.27 120.28 24.32 114.15 30.27 112.23 30.27 115.05 14.33"/><polygon class="cls-3" points="165.91 14.05 168.64 14.05 164.67 22.05 174.1 14.05 176.38 14.05 167.04 21.73 169.8 28.72 166.84 30.27 164.2 23.2 160.96 29.53 157.86 29.53 165.91 14.05"/><polygon class="cls-3" points="179.28 14.54 182.28 14.54 178.48 21.31 184.48 21.31 187.94 14.54 191.28 14.54 183.13 30.27 180.13 30.27 183.93 23.3 177.47 23.3 174.34 30.27 171.05 30.27 179.28 14.54"/><path class="cls-3" d="M197.27,14.62v2l-12.2,13.67h2.11l4.1-5.55h5.28l-.84,5.6h2.66l1.69-15.72Zm-.51,8.76h-3.88l3.88-4.65Z"/><path class="cls-3" d="M214.25,14.54h-6.17l-7.76,15.72h3.17l2.87-7,1.77,7L211.25,29l-1.82-6.25C214.37,20.34,218.09,16,214.25,14.54Zm-1.48,4.35c-.49,2.74-5.59,2.78-5.59,2.78,1.11-1.71,1.71-5.17,3.33-5.55C211.76,15.83,213.26,16.17,212.77,18.89Z"/><path class="cls-3" d="M226.49,14.75h-6.08l-7.55,15.51h6.67C224.77,30.27,237.22,16.46,226.49,14.75Zm-6,13.77h-4l6-12.05C232.4,16.17,225.36,28.24,220.46,28.52Z"/><polygon class="cls-3" points="234.5 14.75 243.34 14.75 242.2 16.47 239.16 16.31 232.23 30.27 229.38 30.27 236.63 16.24 232.57 16.24 234.5 14.75"/><path class="cls-3" d="M145.94,14.77c-2.13-2.25-7.27-.85-11.48,3.13s-5.89,9-3.76,11.28,7.27.85,11.48-3.13S148.07,17,145.94,14.77Zm-4.25,10c-2.41,2.8-5.86,3.78-7.69,2.19s-1.38-5.13,1-7.93,5.86-3.78,7.69-2.2S144.1,21.94,141.69,24.73Z"/><path class="cls-3" d="M157,27.79c-4.38,3.11-9.77,3.69-10.71-.61a5.44,5.44,0,0,1,.36-3.27,14.87,14.87,0,0,1,8.21-8.05c.65-.28,1.29-.6,1.92-.92,2.61-.89,4-.89,5.38-.27a1.12,1.12,0,0,1,.1,1.72c-.86.82-2,.81-3.89.48-3.52-.8-6.1,1.22-8.53,5.88a4.56,4.56,0,0,0-.24,2.77c.7,2.89,3.69,3.21,7.26,2A.16.16,0,0,1,157,27.79Z"/><path class="cls-3" d="M126,0c-7.89,7.77-17.31,17.47-27.35,28C105,19.9,111.08,12,115.14,6.35A26,26,0,0,0,126,0Z"/><path class="cls-3" d="M114.12,6.63c-3.79,4.4-8.77,9.51-14.26,14.9,3.81-5.15,7.37-10.06,10.08-14.12A30.48,30.48,0,0,0,114.12,6.63Z"/><path class="cls-3" d="M109.2,7.49q-3.44,3.61-7.56,7.32,2.49-3.58,4.57-7.16C107.23,7.64,108.23,7.59,109.2,7.49Z"/><path class="cls-3" d="M105.23,7.65a31.28,31.28,0,0,0-3.58,4.7L103,7.57C103.75,7.62,104.5,7.65,105.23,7.65Z"/></g></g></svg>